<?xml version="1.0" encoding="utf-8" standalone="no"?>
<!DOCTYPE svg PUBLIC "-//W3C//DTD SVG 1.1//EN"
  "http://www.w3.org/Graphics/SVG/1.1/DTD/svg11.dtd">
<svg xmlns:xlink="http://www.w3.org/1999/xlink" width="1072.900937pt" height="567.625pt" viewBox="0 0 1072.900937 567.625" xmlns="http://www.w3.org/2000/svg" version="1.1">
 <metadata>
  <rdf:RDF xmlns:dc="http://purl.org/dc/elements/1.1/" xmlns:cc="http://creativecommons.org/ns#" xmlns:rdf="http://www.w3.org/1999/02/22-rdf-syntax-ns#">
   <cc:Work>
    <dc:type rdf:resource="http://purl.org/dc/dcmitype/StillImage"/>
    <dc:date>2025-06-06T15:49:38.208815</dc:date>
    <dc:format>image/svg+xml</dc:format>
    <dc:creator>
     <cc:Agent>
      <dc:title>Matplotlib v3.6.2, https://matplotlib.org/</dc:title>
     </cc:Agent>
    </dc:creator>
   </cc:Work>
  </rdf:RDF>
 </metadata>
 <defs>
  <style type="text/css">*{stroke-linejoin: round; stroke-linecap: butt}</style>
 </defs>
 <g id="figure_1">
  <g id="patch_1">
   <path d="M 0 567.625 
L 1072.900937 567.625 
L 1072.900937 0 
L 0 0 
z
" style="fill: #ffffff"/>
  </g>
  <g id="axes_1">
   <g id="patch_2">
    <path d="M 59.745938 521.8 
L 1065.700938 521.8 
L 1065.700938 62.64375 
L 59.745938 62.64375 
z
" style="fill: #ffffff"/>
   </g>
   <g id="matplotlib.axis_1">
    <g id="xtick_1">
     <g id="line2d_1">
      <path d="M 103.63849 521.8 
L 103.63849 62.64375 
" clip-path="url(#p9edcdb2ffd)" style="fill: none; stroke-dasharray: 2.96,1.28; stroke-dashoffset: 0; stroke: #b0b0b0; stroke-opacity: 0.7; stroke-width: 0.8"/>
     </g>
     <g id="line2d_2">
      <defs>
       <path id="me387b98ac9" d="M 0 0 
L 0 3.5 
" style="stroke: #000000; stroke-width: 0.8"/>
      </defs>
      <g>
       <use xlink:href="#me387b98ac9" x="103.63849" y="521.8" style="stroke: #000000; stroke-width: 0.8"/>
      </g>
     </g>
     <g id="text_1">
      <!-- 0 -->
      <g transform="translate(99.63849 539.8) scale(0.16 -0.16)">
       <defs>
        <path id="SimHei-30" d="M 225 2537 
Q 250 3200 412 3587 
Q 575 3975 875 4225 
Q 1175 4475 1612 4475 
Q 2050 4475 2375 4112 
Q 2700 3750 2800 3200 
Q 2900 2650 2862 1937 
Q 2825 1225 2612 775 
Q 2400 325 1975 150 
Q 1550 -25 1125 187 
Q 700 400 525 750 
Q 350 1100 275 1487 
Q 200 1875 225 2537 
z
M 750 2687 
Q 675 2000 800 1462 
Q 925 925 1212 700 
Q 1500 475 1800 612 
Q 2100 750 2237 1162 
Q 2375 1575 2375 2062 
Q 2375 2550 2337 2950 
Q 2300 3350 2112 3675 
Q 1925 4000 1612 4012 
Q 1300 4025 1062 3700 
Q 825 3375 750 2687 
z
" transform="scale(0.015625)"/>
       </defs>
       <use xlink:href="#SimHei-30"/>
      </g>
     </g>
    </g>
    <g id="xtick_2">
     <g id="line2d_3">
      <path d="M 286.905934 521.8 
L 286.905934 62.64375 
" clip-path="url(#p9edcdb2ffd)" style="fill: none; stroke-dasharray: 2.96,1.28; stroke-dashoffset: 0; stroke: #b0b0b0; stroke-opacity: 0.7; stroke-width: 0.8"/>
     </g>
     <g id="line2d_4">
      <g>
       <use xlink:href="#me387b98ac9" x="286.905934" y="521.8" style="stroke: #000000; stroke-width: 0.8"/>
      </g>
     </g>
     <g id="text_2">
      <!-- 100 -->
      <g transform="translate(274.905934 539.8) scale(0.16 -0.16)">
       <defs>
        <path id="SimHei-31" d="M 1400 3600 
Q 1075 3275 575 2975 
L 575 3450 
Q 1200 3875 1600 4450 
L 1900 4450 
L 1900 150 
L 1400 150 
L 1400 3600 
z
" transform="scale(0.015625)"/>
       </defs>
       <use xlink:href="#SimHei-31"/>
       <use xlink:href="#SimHei-30" x="50"/>
       <use xlink:href="#SimHei-30" x="100"/>
      </g>
     </g>
    </g>
    <g id="xtick_3">
     <g id="line2d_5">
      <path d="M 470.173378 521.8 
L 470.173378 62.64375 
" clip-path="url(#p9edcdb2ffd)" style="fill: none; stroke-dasharray: 2.96,1.28; stroke-dashoffset: 0; stroke: #b0b0b0; stroke-opacity: 0.7; stroke-width: 0.8"/>
     </g>
     <g id="line2d_6">
      <g>
       <use xlink:href="#me387b98ac9" x="470.173378" y="521.8" style="stroke: #000000; stroke-width: 0.8"/>
      </g>
     </g>
     <g id="text_3">
      <!-- 200 -->
      <g transform="translate(458.173378 539.8) scale(0.16 -0.16)">
       <defs>
        <path id="SimHei-32" d="M 300 250 
Q 325 625 650 925 
Q 975 1225 1475 1862 
Q 1975 2500 2125 2850 
Q 2275 3200 2237 3450 
Q 2200 3700 2000 3862 
Q 1800 4025 1537 4000 
Q 1275 3975 1037 3800 
Q 800 3625 675 3275 
L 200 3350 
Q 400 3925 712 4187 
Q 1025 4450 1450 4475 
Q 1700 4500 1900 4462 
Q 2100 4425 2312 4287 
Q 2525 4150 2662 3875 
Q 2800 3600 2762 3212 
Q 2725 2825 2375 2287 
Q 2025 1750 1025 600 
L 2825 600 
L 2825 150 
L 300 150 
L 300 250 
z
" transform="scale(0.015625)"/>
       </defs>
       <use xlink:href="#SimHei-32"/>
       <use xlink:href="#SimHei-30" x="50"/>
       <use xlink:href="#SimHei-30" x="100"/>
      </g>
     </g>
    </g>
    <g id="xtick_4">
     <g id="line2d_7">
      <path d="M 653.440822 521.8 
L 653.440822 62.64375 
" clip-path="url(#p9edcdb2ffd)" style="fill: none; stroke-dasharray: 2.96,1.28; stroke-dashoffset: 0; stroke: #b0b0b0; stroke-opacity: 0.7; stroke-width: 0.8"/>
     </g>
     <g id="line2d_8">
      <g>
       <use xlink:href="#me387b98ac9" x="653.440822" y="521.8" style="stroke: #000000; stroke-width: 0.8"/>
      </g>
     </g>
     <g id="text_4">
      <!-- 300 -->
      <g transform="translate(641.440822 539.8) scale(0.16 -0.16)">
       <defs>
        <path id="SimHei-33" d="M 250 1225 
L 700 1300 
Q 800 975 1025 762 
Q 1250 550 1587 562 
Q 1925 575 2125 837 
Q 2325 1100 2300 1437 
Q 2275 1775 2037 1962 
Q 1800 2150 1275 2225 
L 1275 2550 
Q 1800 2600 2037 2825 
Q 2275 3050 2250 3412 
Q 2225 3775 1925 3937 
Q 1625 4100 1287 3975 
Q 950 3850 750 3275 
L 300 3350 
Q 450 3800 712 4100 
Q 975 4400 1425 4450 
Q 1875 4500 2212 4337 
Q 2550 4175 2687 3837 
Q 2825 3500 2725 3100 
Q 2625 2700 2150 2400 
Q 2500 2250 2687 1950 
Q 2875 1650 2812 1162 
Q 2750 675 2375 375 
Q 2000 75 1525 87 
Q 1050 100 700 387 
Q 350 675 250 1225 
z
" transform="scale(0.015625)"/>
       </defs>
       <use xlink:href="#SimHei-33"/>
       <use xlink:href="#SimHei-30" x="50"/>
       <use xlink:href="#SimHei-30" x="100"/>
      </g>
     </g>
    </g>
    <g id="xtick_5">
     <g id="line2d_9">
      <path d="M 836.708266 521.8 
L 836.708266 62.64375 
" clip-path="url(#p9edcdb2ffd)" style="fill: none; stroke-dasharray: 2.96,1.28; stroke-dashoffset: 0; stroke: #b0b0b0; stroke-opacity: 0.7; stroke-width: 0.8"/>
     </g>
     <g id="line2d_10">
      <g>
       <use xlink:href="#me387b98ac9" x="836.708266" y="521.8" style="stroke: #000000; stroke-width: 0.8"/>
      </g>
     </g>
     <g id="text_5">
      <!-- 400 -->
      <g transform="translate(824.708266 539.8) scale(0.16 -0.16)">
       <defs>
        <path id="SimHei-34" d="M 2000 1100 
L 75 1100 
L 75 1525 
L 2100 4450 
L 2475 4450 
L 2475 1525 
L 3075 1525 
L 3075 1100 
L 2475 1100 
L 2475 150 
L 2000 150 
L 2000 1100 
z
M 2000 1525 
L 2000 3500 
L 600 1525 
L 2000 1525 
z
" transform="scale(0.015625)"/>
       </defs>
       <use xlink:href="#SimHei-34"/>
       <use xlink:href="#SimHei-30" x="50"/>
       <use xlink:href="#SimHei-30" x="100"/>
      </g>
     </g>
    </g>
    <g id="xtick_6">
     <g id="line2d_11">
      <path d="M 1019.97571 521.8 
L 1019.97571 62.64375 
" clip-path="url(#p9edcdb2ffd)" style="fill: none; stroke-dasharray: 2.96,1.28; stroke-dashoffset: 0; stroke: #b0b0b0; stroke-opacity: 0.7; stroke-width: 0.8"/>
     </g>
     <g id="line2d_12">
      <g>
       <use xlink:href="#me387b98ac9" x="1019.97571" y="521.8" style="stroke: #000000; stroke-width: 0.8"/>
      </g>
     </g>
     <g id="text_6">
      <!-- 500 -->
      <g transform="translate(1007.97571 539.8) scale(0.16 -0.16)">
       <defs>
        <path id="SimHei-35" d="M 550 1325 
Q 725 650 1150 575 
Q 1575 500 1837 662 
Q 2100 825 2212 1087 
Q 2325 1350 2312 1675 
Q 2300 2000 2137 2225 
Q 1975 2450 1725 2525 
Q 1475 2600 1162 2525 
Q 850 2450 650 2175 
L 225 2225 
Q 275 2375 700 4375 
L 2675 4375 
L 2675 3925 
L 1075 3925 
Q 950 3250 825 2850 
Q 1200 3025 1525 3012 
Q 1850 3000 2150 2862 
Q 2450 2725 2587 2487 
Q 2725 2250 2787 2012 
Q 2850 1775 2837 1500 
Q 2825 1225 2725 937 
Q 2625 650 2425 462 
Q 2225 275 1937 162 
Q 1650 50 1275 75 
Q 900 100 562 350 
Q 225 600 100 1200 
L 550 1325 
z
" transform="scale(0.015625)"/>
       </defs>
       <use xlink:href="#SimHei-35"/>
       <use xlink:href="#SimHei-30" x="50"/>
       <use xlink:href="#SimHei-30" x="100"/>
      </g>
     </g>
    </g>
    <g id="text_7">
     <!-- Episode -->
     <g transform="translate(531.223438 558.175) scale(0.18 -0.18)">
      <defs>
       <path id="SimHei-45" d="M 2900 125 
L 350 125 
L 350 4400 
L 2775 4400 
L 2775 3925 
L 925 3925 
L 925 2600 
L 2625 2600 
L 2625 2125 
L 925 2125 
L 925 600 
L 2900 600 
L 2900 125 
z
" transform="scale(0.015625)"/>
       <path id="SimHei-70" d="M 2825 1525 
Q 2825 800 2475 425 
Q 2125 50 1625 50 
Q 1350 50 1150 162 
Q 950 275 800 500 
L 800 -800 
L 300 -800 
L 300 2925 
L 800 2925 
L 800 2550 
Q 950 2775 1150 2875 
Q 1350 2975 1625 2975 
Q 2125 2975 2475 2612 
Q 2825 2250 2825 1525 
z
M 2275 1525 
Q 2275 2000 2087 2262 
Q 1900 2525 1525 2525 
Q 1225 2525 1012 2262 
Q 800 2000 800 1525 
Q 800 1050 1012 775 
Q 1225 500 1525 500 
Q 1900 500 2087 775 
Q 2275 1050 2275 1525 
z
" transform="scale(0.015625)"/>
       <path id="SimHei-69" d="M 1800 3725 
L 1300 3725 
L 1300 4375 
L 1800 4375 
L 1800 3725 
z
M 1800 125 
L 1300 125 
L 1300 2925 
L 1800 2925 
L 1800 125 
z
" transform="scale(0.015625)"/>
       <path id="SimHei-73" d="M 2750 900 
Q 2750 500 2437 287 
Q 2125 75 1650 75 
Q 1050 75 725 312 
Q 400 550 400 1000 
L 900 1000 
Q 900 700 1112 600 
Q 1325 500 1625 500 
Q 1925 500 2075 612 
Q 2225 725 2225 900 
Q 2225 1025 2100 1150 
Q 1975 1275 1475 1350 
Q 900 1425 687 1637 
Q 475 1850 475 2200 
Q 475 2500 762 2737 
Q 1050 2975 1600 2975 
Q 2100 2975 2387 2750 
Q 2675 2525 2675 2150 
L 2175 2150 
Q 2175 2375 2012 2462 
Q 1850 2550 1600 2550 
Q 1275 2550 1137 2437 
Q 1000 2325 1000 2175 
Q 1000 2000 1125 1900 
Q 1250 1800 1650 1750 
Q 2300 1650 2525 1437 
Q 2750 1225 2750 900 
z
" transform="scale(0.015625)"/>
       <path id="SimHei-6f" d="M 2925 1525 
Q 2925 875 2525 475 
Q 2125 75 1575 75 
Q 1025 75 625 475 
Q 225 875 225 1525 
Q 225 2175 625 2575 
Q 1025 2975 1575 2975 
Q 2125 2975 2525 2575 
Q 2925 2175 2925 1525 
z
M 2375 1525 
Q 2375 2025 2125 2275 
Q 1875 2525 1575 2525 
Q 1275 2525 1025 2275 
Q 775 2025 775 1525 
Q 775 1025 1025 775 
Q 1275 525 1575 525 
Q 1875 525 2125 775 
Q 2375 1025 2375 1525 
z
" transform="scale(0.015625)"/>
       <path id="SimHei-64" d="M 2750 125 
L 2250 125 
L 2250 500 
Q 2100 275 1900 175 
Q 1700 75 1425 75 
Q 925 75 575 437 
Q 225 800 225 1525 
Q 225 2250 575 2625 
Q 925 3000 1425 3000 
Q 1700 3000 1900 2887 
Q 2100 2775 2250 2550 
L 2250 4400 
L 2750 4400 
L 2750 125 
z
M 2250 1525 
Q 2250 2000 2037 2275 
Q 1825 2550 1525 2550 
Q 1150 2550 962 2275 
Q 775 2000 775 1525 
Q 775 1050 962 787 
Q 1150 525 1525 525 
Q 1825 525 2037 787 
Q 2250 1050 2250 1525 
z
" transform="scale(0.015625)"/>
       <path id="SimHei-65" d="M 2850 1075 
Q 2800 625 2450 350 
Q 2100 75 1625 75 
Q 1025 75 637 462 
Q 250 850 250 1525 
Q 250 2200 637 2587 
Q 1025 2975 1625 2975 
Q 2150 2975 2487 2637 
Q 2825 2300 2825 1525 
L 800 1525 
Q 800 975 1037 750 
Q 1275 525 1625 525 
Q 1900 525 2075 662 
Q 2250 800 2300 1075 
L 2850 1075 
z
M 2250 1925 
Q 2200 2275 2025 2412 
Q 1850 2550 1575 2550 
Q 1325 2550 1125 2412 
Q 925 2275 825 1925 
L 2250 1925 
z
" transform="scale(0.015625)"/>
      </defs>
      <use xlink:href="#SimHei-45"/>
      <use xlink:href="#SimHei-70" x="50"/>
      <use xlink:href="#SimHei-69" x="100"/>
      <use xlink:href="#SimHei-73" x="150"/>
      <use xlink:href="#SimHei-6f" x="200"/>
      <use xlink:href="#SimHei-64" x="250"/>
      <use xlink:href="#SimHei-65" x="300"/>
     </g>
    </g>
   </g>
   <g id="matplotlib.axis_2">
    <g id="ytick_1">
     <g id="line2d_13">
      <path d="M 59.745938 442.550364 
L 1065.700938 442.550364 
" clip-path="url(#p9edcdb2ffd)" style="fill: none; stroke-dasharray: 2.96,1.28; stroke-dashoffset: 0; stroke: #b0b0b0; stroke-opacity: 0.7; stroke-width: 0.8"/>
     </g>
     <g id="line2d_14">
      <defs>
       <path id="m8ea3b7c115" d="M 0 0 
L -3.5 0 
" style="stroke: #000000; stroke-width: 0.8"/>
      </defs>
      <g>
       <use xlink:href="#m8ea3b7c115" x="59.745938" y="442.550364" style="stroke: #000000; stroke-width: 0.8"/>
      </g>
     </g>
     <g id="text_8">
      <!-- −30 -->
      <g transform="translate(27.723438 448.050364) scale(0.16 -0.16)">
       <defs>
        <path id="TimesNewRomanPSMT-2212" d="M 3484 2000 
L 116 2000 
L 116 2256 
L 3484 2256 
L 3484 2000 
z
" transform="scale(0.015625)"/>
       </defs>
       <use xlink:href="#TimesNewRomanPSMT-2212"/>
       <use xlink:href="#SimHei-33" x="56.396484"/>
       <use xlink:href="#SimHei-30" x="106.396484"/>
      </g>
     </g>
    </g>
    <g id="ytick_2">
     <g id="line2d_15">
      <path d="M 59.745938 361.715558 
L 1065.700938 361.715558 
" clip-path="url(#p9edcdb2ffd)" style="fill: none; stroke-dasharray: 2.96,1.28; stroke-dashoffset: 0; stroke: #b0b0b0; stroke-opacity: 0.7; stroke-width: 0.8"/>
     </g>
     <g id="line2d_16">
      <g>
       <use xlink:href="#m8ea3b7c115" x="59.745938" y="361.715558" style="stroke: #000000; stroke-width: 0.8"/>
      </g>
     </g>
     <g id="text_9">
      <!-- −20 -->
      <g transform="translate(27.723438 367.215558) scale(0.16 -0.16)">
       <use xlink:href="#TimesNewRomanPSMT-2212"/>
       <use xlink:href="#SimHei-32" x="56.396484"/>
       <use xlink:href="#SimHei-30" x="106.396484"/>
      </g>
     </g>
    </g>
    <g id="ytick_3">
     <g id="line2d_17">
      <path d="M 59.745938 280.880752 
L 1065.700938 280.880752 
" clip-path="url(#p9edcdb2ffd)" style="fill: none; stroke-dasharray: 2.96,1.28; stroke-dashoffset: 0; stroke: #b0b0b0; stroke-opacity: 0.7; stroke-width: 0.8"/>
     </g>
     <g id="line2d_18">
      <g>
       <use xlink:href="#m8ea3b7c115" x="59.745938" y="280.880752" style="stroke: #000000; stroke-width: 0.8"/>
      </g>
     </g>
     <g id="text_10">
      <!-- −10 -->
      <g transform="translate(27.723438 286.380752) scale(0.16 -0.16)">
       <use xlink:href="#TimesNewRomanPSMT-2212"/>
       <use xlink:href="#SimHei-31" x="56.396484"/>
       <use xlink:href="#SimHei-30" x="106.396484"/>
      </g>
     </g>
    </g>
    <g id="ytick_4">
     <g id="line2d_19">
      <path d="M 59.745938 200.045945 
L 1065.700938 200.045945 
" clip-path="url(#p9edcdb2ffd)" style="fill: none; stroke-dasharray: 2.96,1.28; stroke-dashoffset: 0; stroke: #b0b0b0; stroke-opacity: 0.7; stroke-width: 0.8"/>
     </g>
     <g id="line2d_20">
      <g>
       <use xlink:href="#m8ea3b7c115" x="59.745938" y="200.045945" style="stroke: #000000; stroke-width: 0.8"/>
      </g>
     </g>
     <g id="text_11">
      <!-- 0 -->
      <g transform="translate(44.745938 205.545945) scale(0.16 -0.16)">
       <use xlink:href="#SimHei-30"/>
      </g>
     </g>
    </g>
    <g id="ytick_5">
     <g id="line2d_21">
      <path d="M 59.745938 119.211139 
L 1065.700938 119.211139 
" clip-path="url(#p9edcdb2ffd)" style="fill: none; stroke-dasharray: 2.96,1.28; stroke-dashoffset: 0; stroke: #b0b0b0; stroke-opacity: 0.7; stroke-width: 0.8"/>
     </g>
     <g id="line2d_22">
      <g>
       <use xlink:href="#m8ea3b7c115" x="59.745938" y="119.211139" style="stroke: #000000; stroke-width: 0.8"/>
      </g>
     </g>
     <g id="text_12">
      <!-- 10 -->
      <g transform="translate(36.745938 124.711139) scale(0.16 -0.16)">
       <use xlink:href="#SimHei-31"/>
       <use xlink:href="#SimHei-30" x="50"/>
      </g>
     </g>
    </g>
    <g id="text_13">
     <!-- 累计奖励 -->
     <g transform="translate(21.473437 328.221875) rotate(-90) scale(0.18 -0.18)">
      <defs>
       <path id="SimHei-7d2f" d="M 5475 5000 
Q 5450 4600 5450 3975 
Q 5450 3350 5475 2950 
L 4675 2950 
Q 4850 2775 5075 2600 
Q 4800 2525 4237 2275 
Q 3675 2025 3262 1837 
Q 2850 1650 2400 1425 
Q 3850 1525 4650 1575 
Q 4425 1725 4200 1850 
Q 4375 2000 4500 2175 
Q 5125 1800 5900 1300 
Q 5750 1125 5575 900 
Q 5375 1075 5100 1250 
Q 4250 1175 3475 1125 
L 3475 50 
Q 3475 -350 3212 -462 
Q 2950 -575 2600 -600 
Q 2575 -375 2375 -50 
Q 2800 -75 2900 -25 
Q 3000 25 3000 125 
L 3000 1075 
Q 2400 1050 1987 1012 
Q 1575 975 850 875 
Q 775 1125 700 1350 
Q 1150 1400 1575 1512 
Q 2000 1625 3025 2125 
Q 1775 2025 1250 1925 
Q 1200 2200 1100 2375 
Q 1325 2375 1737 2537 
Q 2150 2700 2475 2950 
L 950 2950 
Q 975 3375 975 3975 
Q 975 4600 950 5000 
L 5475 5000 
z
M 2425 525 
Q 2200 400 1762 137 
Q 1325 -125 850 -425 
Q 700 -225 500 -25 
Q 850 125 1250 362 
Q 1650 600 2025 900 
Q 2150 725 2425 525 
z
M 2975 4100 
L 2975 4650 
L 1450 4650 
L 1450 4100 
L 2975 4100 
z
M 4975 4100 
L 4975 4650 
L 3450 4650 
L 3450 4100 
L 4975 4100 
z
M 4275 850 
Q 4750 650 5050 500 
L 5850 100 
Q 5675 -125 5575 -375 
Q 5150 -100 4775 100 
Q 4400 300 4050 450 
Q 4200 675 4275 850 
z
M 2975 3275 
L 2975 3750 
L 1450 3750 
L 1450 3275 
L 2975 3275 
z
M 4975 3275 
L 4975 3750 
L 3450 3750 
L 3450 3275 
L 4975 3275 
z
M 3700 2475 
Q 4200 2700 4575 2950 
L 3225 2950 
Q 2900 2750 2300 2425 
Q 3075 2450 3700 2475 
z
" transform="scale(0.015625)"/>
       <path id="SimHei-8ba1" d="M 3925 3100 
L 3925 4350 
Q 3925 4850 3900 5125 
L 4425 5125 
Q 4400 4800 4400 4550 
L 4400 3100 
L 5425 3100 
Q 5725 3100 6075 3125 
L 6075 2650 
Q 5700 2675 5450 2675 
L 4400 2675 
L 4400 175 
Q 4400 -125 4425 -550 
L 3900 -550 
Q 3925 -125 3925 150 
L 3925 2675 
L 2950 2675 
Q 2575 2675 2200 2650 
L 2200 3125 
Q 2575 3100 2900 3100 
L 3925 3100 
z
M 1775 3150 
Q 1750 2675 1750 2150 
L 1750 625 
Q 2175 1050 2425 1400 
Q 2575 1200 2775 1000 
L 2075 300 
Q 1750 -25 1450 -350 
Q 1275 -125 1125 50 
Q 1300 250 1275 650 
L 1275 2725 
Q 600 2725 275 2700 
L 275 3175 
Q 675 3150 825 3150 
L 1775 3150 
z
M 1150 5050 
Q 1475 4725 2175 4000 
Q 1950 3800 1750 3625 
Q 1425 4100 775 4750 
Q 950 4875 1150 5050 
z
" transform="scale(0.015625)"/>
       <path id="SimHei-5956" d="M 5075 1575 
Q 5650 1575 6075 1600 
L 6075 1125 
Q 5675 1200 5075 1175 
L 3550 1175 
Q 3975 600 4712 300 
Q 5450 0 6150 -50 
Q 6000 -225 5850 -550 
Q 5350 -450 4975 -325 
Q 4600 -200 4137 87 
Q 3675 375 3250 875 
Q 3025 550 2800 350 
Q 2575 150 2250 -50 
Q 1925 -250 1562 -375 
Q 1200 -500 700 -625 
Q 600 -375 400 -125 
Q 875 -75 1262 37 
Q 1650 150 1962 312 
Q 2275 475 2500 687 
Q 2725 900 2850 1175 
L 1325 1175 
Q 825 1175 350 1150 
L 350 1600 
Q 825 1575 1325 1575 
L 2950 1575 
Q 2975 1750 2975 1950 
Q 3475 1875 3550 1875 
Q 3475 1725 3450 1575 
L 5075 1575 
z
M 4325 5000 
Q 4125 4800 3925 4500 
L 5900 4500 
Q 5675 3950 5462 3587 
Q 5250 3225 4987 2937 
Q 4725 2650 4287 2400 
Q 3850 2150 3050 1975 
Q 2925 2200 2750 2425 
Q 3500 2450 4100 2800 
L 3425 3250 
Q 3575 3425 3700 3600 
Q 3950 3450 4100 3337 
Q 4250 3225 4475 3075 
Q 4900 3450 5175 4100 
L 3675 4100 
Q 3550 3950 3375 3750 
Q 3200 3550 2900 3200 
Q 2700 3375 2475 3475 
Q 2850 3800 3187 4250 
Q 3525 4700 3750 5225 
Q 4075 5075 4325 5000 
z
M 2450 5175 
Q 2425 4875 2425 4475 
L 2425 2875 
Q 2425 2500 2450 1975 
L 1925 1975 
Q 1950 2500 1950 2875 
L 1950 3050 
Q 1225 2575 750 2275 
Q 575 2550 400 2700 
Q 825 2825 1950 3525 
L 1950 4475 
Q 1950 4850 1925 5175 
L 2450 5175 
z
M 1000 4700 
Q 1475 4325 1800 4025 
L 1425 3650 
Q 1100 4000 675 4350 
Q 850 4500 1000 4700 
z
" transform="scale(0.015625)"/>
       <path id="SimHei-52b1" d="M 2725 3575 
Q 3125 3575 3400 3600 
L 3400 3150 
Q 3100 3175 2725 3175 
L 2275 3175 
Q 2275 2875 2250 2450 
L 3375 2450 
Q 3300 1350 3275 1037 
Q 3250 725 3200 337 
Q 3150 -50 2950 -137 
Q 2750 -225 2275 -275 
Q 2250 -25 2075 300 
Q 2525 250 2637 275 
Q 2750 300 2787 537 
Q 2825 775 2850 1250 
Q 2875 1725 2875 2075 
L 2225 2075 
Q 2200 1600 2112 1250 
Q 2025 900 1925 587 
Q 1825 275 1687 12 
Q 1550 -250 1425 -450 
Q 1250 -250 975 -100 
Q 1200 125 1362 462 
Q 1525 800 1625 1150 
Q 1725 1500 1775 2037 
Q 1825 2575 1825 3175 
L 1250 3175 
Q 1250 2675 1225 2262 
Q 1200 1850 1150 1400 
Q 1100 950 975 425 
Q 850 -100 625 -500 
Q 425 -325 200 -200 
Q 375 125 487 487 
Q 600 850 675 1350 
Q 750 1850 762 2300 
Q 775 2750 775 3475 
Q 775 4225 750 4700 
L 2875 4700 
Q 3125 4700 3425 4725 
L 3425 4300 
Q 3150 4325 2875 4325 
L 1250 4325 
L 1250 3575 
L 2725 3575 
z
M 4550 -600 
Q 4500 -300 4325 50 
Q 4825 -25 5000 50 
Q 5175 125 5212 625 
Q 5250 1125 5287 1912 
Q 5325 2700 5325 3400 
L 4675 3400 
Q 4650 2325 4525 1675 
Q 4400 1025 4212 575 
Q 4025 125 3837 -137 
Q 3650 -400 3475 -650 
Q 3225 -450 3025 -375 
Q 3400 50 3637 512 
Q 3875 975 3987 1362 
Q 4100 1750 4150 2175 
Q 4200 2600 4225 3400 
Q 3825 3400 3550 3375 
L 3550 3825 
Q 3925 3800 4225 3800 
L 4225 4350 
Q 4225 4625 4200 5175 
Q 4500 5100 4750 5075 
Q 4725 4850 4700 4575 
Q 4675 4300 4675 3800 
L 5825 3800 
Q 5775 3375 5775 2675 
Q 5700 850 5675 500 
Q 5650 150 5575 -112 
Q 5500 -375 5225 -475 
Q 4950 -575 4550 -600 
z
" transform="scale(0.015625)"/>
      </defs>
      <use xlink:href="#SimHei-7d2f"/>
      <use xlink:href="#SimHei-8ba1" x="100"/>
      <use xlink:href="#SimHei-5956" x="200"/>
      <use xlink:href="#SimHei-52b1" x="300"/>
     </g>
    </g>
   </g>
   <g id="line2d_23">
    <path d="M 105.471165 311.840482 
L 107.303839 357.584899 
L 109.136514 348.927492 
L 110.969188 241.926459 
L 112.801863 223.51229 
L 114.634537 293.717319 
L 116.467211 324.410295 
L 118.299886 362.74216 
L 120.13256 337.457033 
L 121.965235 337.416615 
L 123.797909 273.314614 
L 125.630584 276.224667 
L 127.463258 319.527873 
L 129.295932 341.991865 
L 131.128607 327.522435 
L 132.961281 308.890012 
L 134.793956 346.179108 
L 136.62663 246.631044 
L 138.459305 258.457176 
L 140.291979 231.523019 
L 142.124654 247.067552 
L 143.957328 388.124289 
L 145.790002 274.858559 
L 147.622677 260.83372 
L 149.455351 287.630458 
L 151.288026 247.867817 
L 153.1207 275.198065 
L 154.953375 226.980103 
L 156.786049 261.132809 
L 158.618724 215.056969 
L 160.451398 240.940274 
L 162.284072 262.240245 
L 164.116747 321.710412 
L 165.949421 233.188216 
L 167.782096 303.781252 
L 169.61477 224.474224 
L 171.447445 201.848562 
L 173.280119 219.745388 
L 175.112793 152.781834 
L 176.945468 230.189245 
L 178.778142 285.989511 
L 180.610817 263.404267 
L 182.443491 165.14956 
L 184.276166 159.434539 
L 186.10884 236.858116 
L 187.941515 262.409998 
L 189.774189 239.186159 
L 191.606863 133.801822 
L 193.439538 274.915143 
L 195.272212 284.760822 
L 197.104887 301.234956 
L 198.937561 314.572699 
L 200.770236 349.105328 
L 202.60291 333.973052 
L 204.435585 276.55609 
L 206.268259 310.369289 
L 208.100933 280.331075 
L 209.933608 275.699241 
L 211.766282 343.972318 
L 213.598957 277.946448 
L 215.431631 296.376784 
L 217.264306 350.075346 
L 219.09698 348.321231 
L 220.929654 436.536255 
L 222.762329 376.556828 
L 224.595003 300.9197 
L 226.427678 321.77508 
L 228.260352 320.320054 
L 230.093027 362.111649 
L 231.925701 388.859886 
L 233.758376 332.906033 
L 235.59105 424.499952 
L 237.423724 443.989224 
L 239.256399 395.690427 
L 241.089073 451.256273 
L 242.921748 382.231432 
L 244.754422 423.942192 
L 246.587097 427.587842 
L 248.419771 344.772583 
L 250.252446 382.530521 
L 252.08512 430.037136 
L 253.917794 329.236133 
L 255.750469 338.168379 
L 257.583143 336.478931 
L 259.415818 335.533164 
L 261.248492 396.02185 
L 263.081167 500.929261 
L 264.913841 409.513179 
L 266.746515 401.567117 
L 268.57919 415.04228 
L 270.411864 355.361942 
L 272.244539 341.789778 
L 274.077213 401.243778 
L 275.909888 375.756564 
L 277.742562 346.268026 
L 279.575237 281.87502 
L 281.407911 292.83622 
L 283.240585 247.956735 
L 285.07326 232.994212 
L 286.905934 260.469963 
L 288.738609 250.333278 
L 290.571283 160.22672 
L 292.403958 206.561231 
L 294.236632 213.569608 
L 296.069307 270.040804 
L 297.901981 206.53698 
L 299.734655 279.959235 
L 301.56733 199.318432 
L 303.400004 279.474226 
L 305.232679 296.724374 
L 307.065353 346.292277 
L 308.898028 326.471582 
L 310.730702 330.836662 
L 312.563376 318.121347 
L 314.396051 238.878986 
L 316.228725 261.625901 
L 318.0614 272.684102 
L 319.894074 330.561824 
L 321.726749 200.902794 
L 325.392098 300.232604 
L 327.224772 288.438806 
L 329.057446 194.177338 
L 330.890121 212.252001 
L 332.722795 312.487161 
L 334.55547 209.43895 
L 336.388144 416.246718 
L 338.220819 328.055945 
L 340.053493 337.214528 
L 341.886168 284.413233 
L 343.718842 286.223932 
L 345.551516 293.04639 
L 347.384191 324.095039 
L 349.216865 323.98187 
L 351.04954 346.874288 
L 352.882214 387.146188 
L 354.714889 238.458645 
L 356.547563 322.437926 
L 358.380237 245.564025 
L 360.212912 297.686308 
L 362.045586 276.329752 
L 363.878261 294.460999 
L 365.710935 280.670581 
L 367.54361 214.903383 
L 369.376284 250.341362 
L 371.208959 323.391776 
L 373.041633 317.967761 
L 374.874307 220.998327 
L 376.706982 264.608705 
L 378.539656 220.909409 
L 380.372331 298.138983 
L 382.205005 201.783894 
L 384.03768 177.581953 
L 385.870354 289.061234 
L 387.703029 181.930865 
L 389.535703 253.485836 
L 391.368377 219.527134 
L 393.201052 146.703057 
L 395.033726 193.611495 
L 396.866401 210.805058 
L 398.699075 147.527572 
L 400.53175 265.611057 
L 402.364424 268.998035 
L 404.197098 327.764939 
L 406.029773 301.881634 
L 407.862447 259.702032 
L 409.695122 281.147507 
L 411.527796 321.039483 
L 413.360471 236.841949 
L 415.193145 233.794477 
L 417.02582 216.40691 
L 418.858494 256.209969 
L 420.691168 230.027575 
L 422.523843 308.073581 
L 424.356517 199.884276 
L 426.189192 200.417785 
L 429.854541 253.421168 
L 431.687215 231.086511 
L 433.519889 363.744512 
L 435.352564 309.399271 
L 437.185238 372.943513 
L 439.017913 266.451739 
L 440.850587 314.702035 
L 442.683262 338.05521 
L 444.515936 304.371346 
L 446.348611 246.243037 
L 448.181285 287.210117 
L 450.013959 191.194534 
L 451.846634 277.057265 
L 453.679308 351.748626 
L 455.511983 267.462174 
L 457.344657 278.302121 
L 459.177332 285.496419 
L 461.010006 219.987892 
L 462.842681 274.923226 
L 464.675355 221.184247 
L 466.508029 260.203208 
L 468.340704 365.32079 
L 470.173378 272.595184 
L 472.006053 276.362086 
L 473.838727 218.047857 
L 475.671402 232.177781 
L 477.504076 193.191154 
L 479.33675 218.460114 
L 481.169425 253.502003 
L 483.002099 378.044189 
L 484.834774 200.425869 
L 486.667448 295.220846 
L 488.500123 207.903089 
L 490.332797 280.419993 
L 492.165472 282.109441 
L 493.998146 323.965703 
L 495.83082 400.047423 
L 497.663495 332.17852 
L 499.496169 285.278165 
L 501.328844 327.918525 
L 503.161518 259.491862 
L 504.994193 324.240542 
L 506.826867 234.109733 
L 508.659542 198.712171 
L 510.492216 196.367962 
L 512.32489 312.745832 
L 514.157565 247.576811 
L 515.990239 229.914406 
L 517.822914 255.72496 
L 519.655588 176.547267 
L 521.488263 277.906031 
L 523.320937 236.672196 
L 525.153611 325.056973 
L 526.986286 269.660881 
L 528.81896 223.593124 
L 530.651635 287.080781 
L 532.484309 306.642804 
L 534.316984 308.865762 
L 536.149658 254.172932 
L 537.982333 287.202034 
L 539.815007 279.757148 
L 541.647681 316.116644 
L 543.480356 279.8784 
L 545.31303 255.078282 
L 547.145705 283.661469 
L 548.978379 315.809471 
L 550.811054 281.082839 
L 552.643728 263.22643 
L 554.476403 207.23216 
L 556.309077 232.161614 
L 558.141751 262.903091 
L 559.974426 173.346209 
L 561.8071 294.849006 
L 563.639775 218.42778 
L 565.472449 275.383985 
L 567.305124 244.594007 
L 569.137798 233.737893 
L 570.970472 280.533162 
L 572.803147 304.848272 
L 574.635821 242.872226 
L 576.468496 281.988189 
L 578.30117 278.932633 
L 580.133845 294.88134 
L 581.966519 360.583871 
L 583.799194 252.758323 
L 585.631868 323.642364 
L 587.464542 294.105326 
L 589.297217 211.985246 
L 591.129891 294.85709 
L 592.962566 317.401917 
L 594.79524 185.802853 
L 596.627915 202.624576 
L 598.460589 246.0167 
L 600.293264 278.9488 
L 602.125938 162.999354 
L 603.958612 192.916315 
L 605.791287 161.657496 
L 607.623961 261.957324 
L 609.456636 169.1913 
L 611.28931 269.337541 
L 613.121985 281.972022 
L 614.954659 303.554915 
L 616.787333 267.171169 
L 618.620008 252.313731 
L 620.452682 267.42984 
L 622.285357 239.266993 
L 624.118031 321.556826 
L 625.950706 256.888981 
L 627.78338 231.046094 
L 629.616055 246.808881 
L 631.448729 325.331812 
L 633.281403 264.907794 
L 635.114078 276.79051 
L 636.946752 221.095329 
L 638.779427 219.284629 
L 640.612101 283.200711 
L 642.444776 352.371054 
L 644.27745 255.846212 
L 646.110125 136.428953 
L 647.942799 214.289038 
L 649.775473 272.530516 
L 651.608148 149.653527 
L 653.440822 295.519935 
L 655.273497 205.566963 
L 657.106171 233.810644 
L 658.938846 271.511998 
L 660.77152 247.786982 
L 662.604194 159.774045 
L 664.436869 301.000535 
L 666.269543 225.484659 
L 668.102218 277.768612 
L 669.934892 167.218931 
L 671.767567 126.219517 
L 673.600241 239.541832 
L 675.432916 197.839155 
L 677.26559 270.121639 
L 679.098264 161.382658 
L 680.930939 240.277428 
L 682.763613 306.19013 
L 684.596288 296.328283 
L 686.428962 222.841361 
L 688.261637 325.428813 
L 690.094311 231.765523 
L 691.926986 188.575486 
L 693.75966 288.269053 
L 695.592334 249.516847 
L 697.425009 231.240097 
L 699.257683 246.129868 
L 701.090358 156.775074 
L 702.923032 249.056088 
L 704.755707 276.548006 
L 706.588381 227.836952 
L 708.421055 274.098711 
L 710.25373 166.79859 
L 712.086404 83.514489 
L 713.919079 298.817995 
L 715.751753 261.860322 
L 717.584428 112.889857 
L 719.417102 193.538743 
L 721.249777 284.63957 
L 723.082451 263.978194 
L 724.915125 148.352087 
L 726.7478 292.811969 
L 728.580474 251.044625 
L 732.245823 207.167492 
L 734.078498 267.939099 
L 735.911172 219.737304 
L 737.743846 280.638247 
L 739.576521 276.378253 
L 741.409195 252.604736 
L 743.24187 168.043446 
L 745.074544 290.65368 
L 746.907219 179.777781 
L 748.739893 178.066267 
L 750.572568 207.500175 
L 752.405242 203.832821 
L 754.237916 275.936897 
L 756.070591 255.200971 
L 757.903265 154.855287 
L 759.73594 227.35527 
L 761.568614 176.633681 
L 763.401289 238.53855 
L 765.233963 186.670999 
L 767.066638 170.050878 
L 768.899312 208.256825 
L 770.731986 189.5742 
L 772.564661 183.964726 
L 774.397335 209.180996 
L 776.23001 214.601552 
L 778.062684 153.413064 
L 779.895359 207.398803 
L 781.728033 227.558284 
L 783.560707 219.519415 
L 785.393382 194.290927 
L 787.226056 225.473374 
L 789.058731 177.651945 
L 790.891405 211.545676 
L 792.72408 190.429475 
L 794.556754 232.726636 
L 796.389429 145.227302 
L 798.222103 153.44457 
L 800.054777 227.247108 
L 801.887452 221.882652 
L 803.720126 204.359287 
L 805.552801 200.226055 
L 807.385475 270.234863 
L 809.21815 247.774257 
L 811.050824 177.021672 
L 812.883499 219.760128 
L 814.716173 214.227285 
L 816.548847 234.474279 
L 818.381522 229.519755 
L 820.214196 153.028123 
L 822.046871 250.083102 
L 823.879545 217.902873 
L 825.71222 216.26978 
L 827.544894 223.559724 
L 829.377568 210.34188 
L 831.210243 269.6571 
L 833.042917 135.160849 
L 834.875592 244.799131 
L 836.708266 170.260767 
L 838.540941 200.669426 
L 840.373615 208.008765 
L 842.20629 209.432723 
L 844.038964 225.486299 
L 845.871638 204.709407 
L 847.704313 222.654688 
L 849.536987 238.631988 
L 851.369662 236.679132 
L 853.202336 232.340999 
L 855.035011 223.893141 
L 856.867685 227.178541 
L 858.70036 211.247522 
L 860.533034 214.819232 
L 862.365708 186.617146 
L 864.198383 253.31643 
L 866.031057 255.22672 
L 869.696406 188.7409 
L 871.529081 223.122321 
L 873.361755 224.128185 
L 875.194429 213.321059 
L 877.027104 213.474536 
L 878.859778 250.143665 
L 880.692453 207.265471 
L 882.525127 244.50187 
L 884.357802 220.799302 
L 886.190476 230.031127 
L 888.023151 172.405491 
L 889.855825 166.632919 
L 891.688499 237.246999 
L 893.521174 233.076723 
L 895.353848 234.224293 
L 897.186523 187.241043 
L 899.019197 208.342205 
L 900.851872 221.185169 
L 902.684546 216.159578 
L 904.517221 209.304712 
L 906.349895 224.577505 
L 908.182569 174.044325 
L 910.015244 226.799569 
L 911.847918 178.872277 
L 913.680593 231.907863 
L 915.513267 223.0579 
L 917.345942 224.010804 
L 919.178616 186.710578 
L 921.01129 221.70538 
L 922.843965 206.501499 
L 924.676639 227.937819 
L 926.509314 217.387298 
L 928.341988 203.860701 
L 930.174663 229.45986 
L 932.007337 214.598989 
L 933.840012 229.47716 
L 935.672686 214.943992 
L 937.50536 202.157557 
L 939.338035 203.265156 
L 941.170709 147.586412 
L 943.003384 229.853586 
L 944.836058 236.418324 
L 946.668733 197.344924 
L 948.501407 232.242688 
L 950.334082 178.532863 
L 952.166756 203.894137 
L 953.99943 204.920225 
L 955.832105 229.357726 
L 957.664779 203.462047 
L 959.497454 217.023228 
L 961.330128 239.947243 
L 963.162803 195.473707 
L 964.995477 246.812265 
L 966.828151 196.961126 
L 968.660826 198.677286 
L 970.4935 209.216668 
L 972.326175 182.445188 
L 974.158849 210.322789 
L 975.991524 269.521224 
L 977.824198 213.365969 
L 979.656873 199.706976 
L 981.489547 195.625245 
L 983.322221 222.853794 
L 985.154896 223.944041 
L 986.98757 206.966661 
L 988.820245 233.671982 
L 990.652919 215.469578 
L 992.485594 258.14674 
L 994.318268 228.885104 
L 996.150943 204.927688 
L 997.983617 209.666952 
L 999.816291 174.280969 
L 1001.648966 233.003069 
L 1003.48164 200.181902 
L 1005.314315 220.52102 
L 1007.146989 227.9143 
L 1008.979664 227.850233 
L 1010.812338 253.214595 
L 1012.645012 206.012527 
L 1014.477687 191.376451 
L 1016.310361 235.717334 
L 1018.143036 211.108641 
L 1019.97571 201.940845 
L 1019.97571 201.940845 
" clip-path="url(#p9edcdb2ffd)" style="fill: none; stroke: #0000ff; stroke-opacity: 0.6; stroke-width: 2; stroke-linecap: square"/>
   </g>
   <g id="line2d_24">
    <path d="M 105.471165 374.798548 
L 107.303839 361.17894 
L 109.136514 348.598434 
L 110.969188 337.008239 
L 112.801863 326.361133 
L 114.634537 316.611423 
L 116.467211 307.714913 
L 118.299886 299.628871 
L 120.13256 292.311991 
L 121.965235 285.724366 
L 123.797909 279.827449 
L 125.630584 274.584026 
L 127.463258 269.958182 
L 129.295932 265.91527 
L 131.128607 262.421881 
L 132.961281 259.445813 
L 134.793956 256.956043 
L 136.62663 254.922695 
L 138.459305 253.317017 
L 140.291979 252.111344 
L 142.124654 251.27908 
L 143.957328 250.794662 
L 145.790002 250.633541 
L 147.622677 250.772148 
L 149.455351 251.187876 
L 151.288026 251.859048 
L 153.1207 252.764896 
L 154.953375 253.885533 
L 156.786049 255.201934 
L 158.618724 256.695907 
L 162.284072 260.14784 
L 165.949421 264.111631 
L 169.61477 268.4695 
L 175.112793 275.515028 
L 184.276166 287.865556 
L 191.606863 297.630765 
L 197.104887 304.582761 
L 200.770236 308.955729 
L 204.435585 313.077252 
L 208.100933 316.917965 
L 211.766282 320.453977 
L 215.431631 323.666441 
L 219.09698 326.541158 
L 222.762329 329.068181 
L 226.427678 331.241455 
L 230.093027 333.058463 
L 233.758376 334.519893 
L 237.423724 335.629324 
L 241.089073 336.392927 
L 244.754422 336.819178 
L 248.419771 336.918596 
L 252.08512 336.703483 
L 255.750469 336.187692 
L 259.415818 335.3864 
L 263.081167 334.315895 
L 266.746515 332.993384 
L 270.411864 331.436804 
L 274.077213 329.664651 
L 277.742562 327.695818 
L 283.240585 324.415706 
L 288.738609 320.801113 
L 294.236632 316.916612 
L 301.56733 311.426684 
L 312.563376 302.816894 
L 327.224772 291.322845 
L 334.55547 285.827179 
L 341.886168 280.62729 
L 347.384191 276.969163 
L 352.882214 273.549459 
L 358.380237 270.391238 
L 363.878261 267.512993 
L 369.376284 264.928751 
L 374.874307 262.648206 
L 380.372331 260.676883 
L 385.870354 259.016336 
L 391.368377 257.66437 
L 396.866401 256.61528 
L 402.364424 255.860119 
L 407.862447 255.386967 
L 413.360471 255.18122 
L 418.858494 255.225885 
L 424.356517 255.501882 
L 429.854541 255.988343 
L 435.352564 256.662917 
L 442.683262 257.814161 
L 450.013959 259.199782 
L 459.177332 261.170383 
L 475.671402 265.03212 
L 488.500123 267.962821 
L 497.663495 269.843393 
L 504.994193 271.150181 
L 512.32489 272.237431 
L 519.655588 273.070595 
L 526.986286 273.621086 
L 532.484309 273.834753 
L 537.982333 273.869613 
L 543.480356 273.720608 
L 548.978379 273.384709 
L 554.476403 272.86089 
L 559.974426 272.150091 
L 565.472449 271.255159 
L 570.970472 270.180776 
L 578.30117 268.480475 
L 585.631868 266.492517 
L 592.962566 264.241357 
L 600.293264 261.75561 
L 609.456636 258.367818 
L 618.620008 254.732947 
L 631.448729 249.370432 
L 660.77152 236.967285 
L 671.767567 232.637986 
L 680.930939 229.292129 
L 688.261637 226.824437 
L 695.592334 224.566128 
L 702.923032 222.534124 
L 710.25373 220.740452 
L 717.584428 219.192048 
L 724.915125 217.890669 
L 732.245823 216.832893 
L 739.576521 216.010238 
L 746.907219 215.409383 
L 754.237916 215.012505 
L 763.401289 214.769559 
L 772.564661 214.760565 
L 783.560707 214.978205 
L 801.887452 215.618781 
L 820.214196 216.18546 
L 831.210243 216.314397 
L 842.20629 216.206093 
L 851.369662 215.911276 
L 862.365708 215.313084 
L 873.361755 214.484493 
L 891.688499 212.817156 
L 906.349895 211.566606 
L 915.513267 211.005907 
L 922.843965 210.759395 
L 930.174663 210.742475 
L 937.50536 210.992654 
L 943.003384 211.370618 
L 950.334082 212.133943 
L 957.664779 213.17762 
L 964.995477 214.452053 
L 985.154896 218.184904 
L 990.652919 218.858321 
L 994.318268 219.098363 
L 997.983617 219.110888 
L 1001.648966 218.836009 
L 1005.314315 218.205931 
L 1007.146989 217.734183 
L 1008.979664 217.144293 
L 1010.812338 216.425261 
L 1012.645012 215.565463 
L 1014.477687 214.552626 
L 1016.310361 213.373804 
L 1018.143036 212.01535 
L 1019.97571 210.462894 
L 1019.97571 210.462894 
" clip-path="url(#p9edcdb2ffd)" style="fill: none; stroke-dasharray: 7.4,3.2; stroke-dashoffset: 0; stroke: #ff0000; stroke-opacity: 0.8; stroke-width: 2"/>
   </g>
   <g id="line2d_25">
    <path d="M 121.965235 313.953504 
L 123.797909 310.100917 
L 125.630584 301.964894 
L 127.463258 299.024932 
L 131.128607 319.432487 
L 132.961281 320.949757 
L 134.793956 323.126638 
L 136.62663 311.515527 
L 138.459305 303.615541 
L 140.291979 293.026181 
L 142.124654 290.401475 
L 143.957328 301.591437 
L 145.790002 297.124506 
L 147.622677 289.008691 
L 149.455351 285.019494 
L 151.288026 278.917274 
L 153.1207 271.81917 
L 154.953375 269.854076 
L 156.786049 270.121639 
L 158.618724 268.475034 
L 160.451398 267.862306 
L 162.284072 255.273902 
L 164.116747 259.959087 
L 165.949421 257.194537 
L 167.782096 258.809616 
L 169.61477 256.470257 
L 171.447445 249.135307 
L 173.280119 248.411835 
L 175.112793 237.576738 
L 176.945468 239.089965 
L 178.778142 243.594889 
L 180.610817 243.711291 
L 182.443491 228.055206 
L 184.276166 220.679838 
L 186.10884 213.987524 
L 189.774189 221.514862 
L 191.606863 212.920505 
L 193.439538 225.133836 
L 195.272212 230.590994 
L 197.104887 232.115538 
L 198.937561 237.232381 
L 202.60291 273.08181 
L 204.435585 277.051607 
L 206.268259 281.847536 
L 208.100933 285.962028 
L 209.933608 300.151769 
L 211.766282 307.057487 
L 213.598957 306.37605 
L 215.431631 305.890232 
L 217.264306 309.440497 
L 219.09698 309.362087 
L 222.762329 329.618481 
L 224.595003 328.673523 
L 226.427678 332.817923 
L 228.260352 337.280004 
L 230.093027 339.093937 
L 231.925701 350.185281 
L 233.758376 353.838206 
L 235.59105 361.280667 
L 237.423724 370.847466 
L 239.256399 366.762883 
L 241.089073 374.232828 
L 242.921748 382.364001 
L 246.587097 403.307491 
L 248.419771 401.573584 
L 250.252446 400.940648 
L 252.08512 410.653758 
L 253.917794 401.127376 
L 255.750469 390.545292 
L 257.583143 384.624142 
L 259.415818 373.051831 
L 261.248492 374.430873 
L 263.081167 382.12958 
L 264.913841 380.322114 
L 266.746515 386.001567 
L 268.57919 389.252743 
L 270.411864 381.785224 
L 272.244539 383.040588 
L 274.077213 389.348128 
L 275.909888 393.275891 
L 277.742562 394.349378 
L 279.575237 382.934695 
L 281.407911 362.12539 
L 286.905934 313.655224 
L 288.738609 303.152358 
L 290.571283 284.996052 
L 292.403958 265.527797 
L 294.236632 249.309101 
L 297.901981 234.152575 
L 299.734655 232.864877 
L 301.56733 228.001046 
L 303.400004 232.649048 
L 305.232679 236.274489 
L 307.065353 245.870389 
L 308.898028 262.494875 
L 310.730702 274.922418 
L 312.563376 285.377592 
L 314.396051 282.26141 
L 316.228725 287.770302 
L 318.0614 287.042789 
L 319.894074 300.167128 
L 321.726749 292.309985 
L 325.392098 283.154635 
L 327.224772 279.351357 
L 329.057446 265.685425 
L 330.890121 255.09849 
L 332.722795 262.459308 
L 334.55547 257.240613 
L 336.388144 271.596874 
L 338.220819 271.346286 
L 340.053493 284.97746 
L 341.886168 288.295728 
L 343.718842 286.894861 
L 345.551516 287.35562 
L 347.384191 300.34739 
L 349.216865 311.520377 
L 351.04954 314.959089 
L 352.882214 332.729813 
L 354.714889 314.951006 
L 356.547563 314.389204 
L 358.380237 305.224154 
L 360.212912 306.551461 
L 362.045586 305.562043 
L 363.878261 305.703504 
L 365.710935 301.361058 
L 367.54361 290.453209 
L 369.376284 280.799917 
L 371.208959 274.424476 
L 373.041633 282.375387 
L 374.874307 272.231427 
L 376.706982 274.135895 
L 378.539656 266.458206 
L 380.372331 268.639129 
L 382.205005 259.371418 
L 384.03768 249.062555 
L 385.870354 256.47834 
L 389.535703 242.646697 
L 391.368377 232.802634 
L 395.033726 218.273386 
L 396.866401 217.262951 
L 398.699075 202.20181 
L 400.53175 208.584526 
L 402.364424 217.726134 
L 404.197098 221.596505 
L 406.029773 233.591582 
L 407.862447 234.213201 
L 409.695122 240.375239 
L 411.527796 257.808881 
L 413.360471 262.131927 
L 415.193145 264.430869 
L 417.02582 271.318802 
L 418.858494 270.378694 
L 420.691168 266.481648 
L 422.523843 264.512512 
L 424.356517 254.312776 
L 426.189192 248.384351 
L 428.021866 242.975694 
L 429.854541 236.213863 
L 431.687215 235.638319 
L 433.519889 248.633322 
L 435.352564 257.932559 
L 437.185238 269.605913 
L 439.017913 273.248329 
L 440.850587 273.911175 
L 442.683262 287.728268 
L 444.515936 298.123624 
L 446.348611 300.041834 
L 448.181285 303.420729 
L 450.013959 299.431531 
L 451.846634 290.762807 
L 453.679308 294.997742 
L 455.511983 284.449608 
L 457.344657 285.634647 
L 459.177332 282.714085 
L 461.010006 270.907353 
L 462.842681 267.962541 
L 464.675355 265.456662 
L 466.508029 262.755971 
L 468.340704 280.168597 
L 470.173378 279.722389 
L 472.006053 272.183735 
L 473.838727 267.242303 
L 475.671402 262.629869 
L 477.504076 253.399343 
L 479.33675 253.246565 
L 481.169425 251.104442 
L 483.002099 266.790437 
L 484.834774 260.812703 
L 486.667448 253.802708 
L 488.500123 247.333499 
L 490.332797 247.739289 
L 492.165472 254.145448 
L 493.998146 263.32424 
L 495.83082 284.009867 
L 497.663495 295.381708 
L 499.496169 298.559324 
L 501.328844 293.546757 
L 503.161518 299.453357 
L 504.994193 302.355326 
L 506.826867 304.975991 
L 510.492216 288.231061 
L 512.32489 287.109074 
L 514.157565 271.862012 
L 515.990239 261.635601 
L 517.822914 258.68028 
L 519.655588 243.543155 
L 521.488263 245.384572 
L 523.320937 236.627737 
L 525.153611 245.722461 
L 526.986286 252.817332 
L 528.81896 255.539848 
L 530.651635 252.973343 
L 532.484309 258.879942 
L 534.316984 266.775078 
L 536.149658 266.619875 
L 537.982333 277.685352 
L 539.815007 277.870463 
L 541.647681 285.814908 
L 543.480356 281.297051 
L 545.31303 279.838791 
L 547.145705 285.845625 
L 548.978379 288.718494 
L 550.811054 286.162498 
L 554.476403 276.904488 
L 556.309077 271.400446 
L 558.141751 269.71504 
L 559.974426 255.437996 
L 561.8071 256.935057 
L 563.639775 253.270007 
L 565.472449 252.442258 
L 567.305124 245.320712 
L 569.137798 240.586217 
L 570.970472 242.316891 
L 572.803147 252.078502 
L 574.635821 253.149563 
L 576.468496 255.058073 
L 578.30117 265.616715 
L 580.133845 265.619949 
L 581.966519 279.835558 
L 583.799194 277.572991 
L 585.631868 285.477827 
L 587.464542 291.51457 
L 589.297217 284.659779 
L 591.129891 283.660661 
L 592.962566 291.11363 
L 594.79524 281.495096 
L 596.627915 273.86429 
L 598.460589 268.977826 
L 600.293264 260.814319 
L 602.125938 251.838422 
L 605.791287 225.521035 
L 607.623961 230.518242 
L 609.456636 217.951663 
L 611.28931 213.145226 
L 614.954659 232.855177 
L 616.787333 234.970623 
L 618.620008 232.307117 
L 620.452682 242.750165 
L 622.285357 247.385233 
L 624.118031 263.375166 
L 625.950706 262.868332 
L 627.78338 269.053811 
L 629.616055 266.800945 
L 631.448729 271.136924 
L 633.281403 267.272212 
L 635.114078 268.234146 
L 636.946752 265.112306 
L 638.779427 260.297785 
L 640.612101 264.691157 
L 642.444776 267.772579 
L 644.27745 267.668303 
L 646.110125 258.206589 
L 647.942799 254.954604 
L 649.775473 249.674475 
L 651.608148 238.149048 
L 653.440822 240.02199 
L 655.273497 238.469154 
L 657.106171 239.921755 
L 658.938846 238.752884 
L 660.77152 228.294477 
L 662.604194 218.68726 
L 664.436869 235.144418 
L 666.269543 236.26398 
L 668.102218 236.78779 
L 669.934892 238.54433 
L 671.767567 221.614288 
L 673.600241 225.011775 
L 675.432916 221.414626 
L 677.26559 221.275591 
L 679.098264 212.635158 
L 680.930939 220.685496 
L 682.763613 221.204456 
L 684.596288 228.288818 
L 686.428962 222.796093 
L 688.261637 238.617082 
L 690.094311 249.171682 
L 691.926986 244.075048 
L 693.75966 253.118037 
L 695.592334 251.057558 
L 697.425009 258.043302 
L 699.257683 258.628546 
L 701.090358 243.687041 
L 702.923032 238.959821 
L 704.755707 244.330486 
L 706.588381 234.5713 
L 708.421055 238.804618 
L 710.25373 236.626929 
L 712.086404 216.151472 
L 713.919079 221.081587 
L 715.751753 224.143609 
L 717.584428 210.819608 
L 721.249777 218.054324 
L 723.082451 216.797342 
L 724.915125 208.848856 
L 726.7478 210.720182 
L 728.580474 219.144785 
L 730.413149 233.691008 
L 732.245823 224.525958 
L 734.078498 225.133836 
L 735.911172 235.818581 
L 737.743846 244.528531 
L 739.576521 243.702399 
L 741.409195 242.565053 
L 743.24187 244.534189 
L 745.074544 244.31836 
L 746.907219 237.191676 
L 748.739893 232.100631 
L 750.572568 232.133899 
L 752.405242 225.723271 
L 754.237916 231.34323 
L 756.070591 228.799503 
L 757.903265 216.647206 
L 759.73594 214.122259 
L 761.568614 214.981283 
L 763.401289 209.76977 
L 765.233963 210.459092 
L 767.066638 209.657553 
L 768.899312 209.733218 
L 770.731986 208.307356 
L 772.564661 199.110138 
L 774.397335 194.508141 
L 776.23001 200.482768 
L 778.062684 193.088547 
L 779.895359 196.165059 
L 781.728033 195.067033 
L 783.560707 198.351874 
L 785.393382 200.775879 
L 787.226056 202.497534 
L 789.058731 201.305309 
L 790.891405 204.063404 
L 792.72408 202.188252 
L 794.556754 204.00076 
L 796.389429 203.182184 
L 798.222103 197.78676 
L 800.054777 197.755643 
L 801.887452 197.991967 
L 803.720126 198.998803 
L 805.552801 196.474071 
L 807.385475 205.732363 
L 809.21815 209.355221 
L 812.883499 206.717789 
L 814.716173 213.617788 
L 816.548847 221.720759 
L 818.381522 221.948023 
L 820.214196 215.06257 
L 822.046871 219.634952 
L 823.879545 221.402634 
L 825.71222 216.006126 
L 827.544894 213.584672 
L 829.377568 216.916693 
L 831.210243 221.90639 
L 833.042917 213.999747 
L 834.875592 215.032232 
L 836.708266 209.106333 
L 838.540941 213.870463 
L 840.373615 209.66303 
L 842.20629 208.816015 
L 844.038964 209.737667 
L 845.871638 207.852635 
L 847.704313 209.083916 
L 849.536987 205.981404 
L 851.369662 216.133233 
L 853.202336 214.887419 
L 855.035011 220.250657 
L 856.867685 222.901568 
L 858.70036 223.225444 
L 860.533034 223.764095 
L 862.365708 219.87718 
L 864.198383 224.737882 
L 866.031057 227.995085 
L 867.863732 226.421483 
L 869.696406 221.62766 
L 871.529081 220.705792 
L 873.361755 220.729297 
L 875.194429 219.343548 
L 877.027104 219.56625 
L 878.859778 223.098693 
L 880.692453 225.163526 
L 882.525127 224.28207 
L 884.357802 220.839328 
L 886.190476 221.552843 
L 888.023151 219.919303 
L 889.855825 214.270362 
L 891.688499 215.582244 
L 895.353848 219.632786 
L 897.186523 213.342524 
L 899.019197 213.450197 
L 900.851872 211.118527 
L 902.684546 210.654555 
L 904.517221 208.581913 
L 906.349895 213.799115 
L 908.182569 214.540255 
L 910.015244 213.495512 
L 911.847918 208.075068 
L 913.680593 207.843425 
L 915.513267 211.42511 
L 917.345942 212.99197 
L 919.178616 209.544511 
L 921.01129 210.099091 
L 922.843965 209.81877 
L 924.676639 210.154801 
L 926.509314 214.489099 
L 928.341988 212.195212 
L 930.174663 217.25397 
L 932.007337 215.523083 
L 933.840012 216.165009 
L 935.672686 215.258328 
L 937.50536 216.803025 
L 939.338035 214.959003 
L 941.170709 209.067494 
L 943.003384 209.259071 
L 944.836058 211.162174 
L 946.668733 210.510596 
L 948.501407 210.788879 
L 950.334082 207.182266 
L 952.166756 204.623964 
L 953.99943 203.621587 
L 955.832105 206.341604 
L 957.664779 206.361293 
L 959.497454 213.304975 
L 961.330128 214.314341 
L 963.162803 210.219879 
L 964.995477 215.166613 
L 966.828151 211.638457 
L 968.660826 213.652899 
L 970.4935 214.185152 
L 972.326175 211.937648 
L 974.158849 210.034155 
L 975.991524 216.640073 
L 977.824198 216.274347 
L 979.656873 212.25032 
L 981.489547 212.265474 
L 983.322221 209.869627 
L 985.154896 212.567918 
L 986.98757 213.396856 
L 988.820245 215.842387 
L 990.652919 219.144826 
L 992.485594 223.927221 
L 994.318268 219.863609 
L 996.150943 219.019781 
L 997.983617 220.015778 
L 999.816291 217.881351 
L 1001.648966 218.896278 
L 1003.48164 216.520064 
L 1005.314315 217.8755 
L 1007.146989 217.299732 
L 1008.979664 218.537798 
L 1010.812338 218.044583 
L 1012.645012 215.757325 
L 1014.477687 214.402202 
L 1016.310361 217.00724 
L 1018.143036 220.690007 
L 1019.97571 217.583785 
L 1019.97571 217.583785 
" clip-path="url(#p9edcdb2ffd)" style="fill: none; stroke: #008000; stroke-opacity: 0.8; stroke-width: 2; stroke-linecap: square"/>
   </g>
   <g id="patch_3">
    <path d="M 59.745938 521.8 
L 59.745938 62.64375 
" style="fill: none; stroke: #000000; stroke-width: 0.8; stroke-linejoin: miter; stroke-linecap: square"/>
   </g>
   <g id="patch_4">
    <path d="M 1065.700938 521.8 
L 1065.700938 62.64375 
" style="fill: none; stroke: #000000; stroke-width: 0.8; stroke-linejoin: miter; stroke-linecap: square"/>
   </g>
   <g id="patch_5">
    <path d="M 59.745938 521.8 
L 1065.700937 521.8 
" style="fill: none; stroke: #000000; stroke-width: 0.8; stroke-linejoin: miter; stroke-linecap: square"/>
   </g>
   <g id="patch_6">
    <path d="M 59.745938 62.64375 
L 1065.700937 62.64375 
" style="fill: none; stroke: #000000; stroke-width: 0.8; stroke-linejoin: miter; stroke-linecap: square"/>
   </g>
   <g id="text_14">
    <!-- 每个Episode的累计奖励变化 -->
    <g transform="translate(437.723438 56.64375) scale(0.2 -0.2)">
     <defs>
      <path id="SimHei-6bcf" d="M 5225 3650 
Q 5175 3150 5150 2675 
L 5125 2200 
Q 5525 2200 6000 2225 
L 6000 1775 
Q 5625 1800 5100 1800 
L 5050 650 
Q 5325 650 5700 675 
L 5700 225 
Q 5400 250 5025 250 
Q 5000 -275 4775 -425 
Q 4550 -575 4000 -650 
Q 3950 -400 3775 -125 
Q 4375 -125 4475 -50 
Q 4575 25 4575 250 
L 1400 250 
L 1500 1100 
L 1550 1800 
L 1275 1800 
Q 825 1800 550 1775 
L 550 2225 
Q 975 2200 1275 2200 
L 1575 2200 
L 1625 2825 
L 1675 3650 
L 5225 3650 
z
M 2350 5000 
Q 2175 4825 2050 4600 
L 4875 4600 
Q 5275 4600 5775 4625 
L 5775 4175 
Q 5275 4200 4875 4200 
L 1825 4200 
L 1375 3625 
Q 1125 3325 775 2975 
Q 600 3175 350 3300 
Q 725 3575 1150 4112 
Q 1575 4650 1825 5250 
Q 2125 5075 2350 5000 
z
M 1975 1800 
L 1875 650 
L 4625 650 
L 4675 1800 
L 2950 1800 
Q 3575 1275 3825 1125 
Q 3625 925 3475 725 
Q 3100 1100 2650 1475 
Q 2775 1675 2875 1800 
L 1975 1800 
z
M 2975 3250 
Q 3125 3150 3287 3012 
Q 3450 2875 3800 2550 
Q 3650 2350 3525 2200 
L 4700 2200 
L 4750 3250 
L 2975 3250 
z
M 2075 3250 
L 2000 2200 
L 3425 2200 
Q 3150 2500 3012 2625 
Q 2875 2750 2700 2900 
Q 2800 3050 2925 3250 
L 2075 3250 
z
" transform="scale(0.015625)"/>
      <path id="SimHei-4e2a" d="M 3425 4825 
Q 4475 3275 6150 2775 
Q 5900 2475 5775 2200 
Q 4150 2900 3150 4425 
Q 2225 2950 675 2125 
Q 550 2350 250 2600 
Q 1450 3100 2112 3875 
Q 2775 4650 3000 5275 
Q 3300 5150 3600 5050 
Q 3500 4925 3425 4825 
z
M 2925 2350 
Q 2925 2750 2875 3375 
L 3450 3375 
Q 3425 2950 3425 2325 
L 3425 550 
Q 3425 -25 3450 -625 
L 2900 -625 
Q 2925 0 2925 525 
L 2925 2350 
z
" transform="scale(0.015625)"/>
      <path id="SimHei-7684" d="M 2100 4975 
Q 1975 4750 1750 3950 
L 2875 3950 
Q 2850 3525 2850 2875 
L 2850 675 
Q 2850 300 2875 -400 
L 2375 -400 
L 2375 100 
L 1100 100 
L 1100 -450 
L 600 -450 
Q 625 350 625 550 
L 625 2850 
Q 625 3525 600 3950 
L 1325 3950 
Q 1450 4525 1525 5150 
Q 1875 5025 2100 4975 
z
M 5825 3075 
Q 5800 1550 5700 175 
Q 5650 -275 5225 -425 
Q 4800 -575 4275 -625 
Q 4250 -350 4050 -50 
Q 4550 -75 4837 -25 
Q 5125 25 5200 200 
Q 5275 375 5312 1225 
Q 5350 2075 5375 3600 
L 3925 3600 
Q 3725 3125 3350 2475 
Q 3175 2650 2925 2750 
Q 3150 3050 3350 3475 
Q 3550 3900 3700 4400 
Q 3850 4900 3875 5175 
Q 4225 5025 4475 4950 
Q 4350 4750 4262 4512 
Q 4175 4275 4075 4050 
L 5850 4050 
Q 5825 3525 5825 3075 
z
M 2375 525 
L 2375 1850 
L 1100 1850 
L 1100 525 
L 2375 525 
z
M 2375 2275 
L 2375 3525 
L 1100 3525 
L 1100 2275 
L 2375 2275 
z
M 4350 2050 
Q 4500 1750 4700 1275 
Q 4525 1200 4225 1025 
Q 4050 1500 3900 1837 
Q 3750 2175 3600 2400 
Q 3775 2500 4050 2650 
L 4350 2050 
z
" transform="scale(0.015625)"/>
      <path id="SimHei-53d8" d="M 5200 1975 
Q 4950 1600 4537 1137 
Q 4125 675 3675 375 
Q 3925 225 4600 87 
Q 5275 -50 6000 -75 
Q 5700 -400 5650 -625 
Q 4850 -525 4212 -312 
Q 3575 -100 3225 125 
Q 2800 -125 2150 -325 
Q 1500 -525 700 -675 
Q 600 -425 400 -175 
Q 950 -150 1687 12 
Q 2425 175 2825 375 
Q 2275 775 1675 1575 
Q 1350 1575 1000 1550 
L 1000 2000 
Q 1450 1975 2075 1975 
L 5200 1975 
z
M 3225 5275 
Q 3400 4900 3550 4475 
L 4675 4475 
Q 5400 4475 5975 4500 
L 5975 4025 
Q 5375 4050 4725 4050 
L 4125 4050 
L 4125 2950 
Q 4125 2550 4150 2150 
L 3600 2150 
Q 3625 2550 3625 2950 
L 3625 4050 
L 2750 4050 
L 2750 2950 
Q 2750 2675 2775 2150 
L 2225 2150 
Q 2250 2675 2250 2950 
L 2250 4050 
L 1700 4050 
Q 975 4050 425 4025 
L 425 4500 
Q 950 4475 1700 4475 
L 2975 4475 
Q 2925 4675 2700 5125 
Q 2950 5150 3225 5275 
z
M 2200 1575 
Q 2650 975 3250 600 
Q 3850 1000 4275 1575 
L 2200 1575 
z
M 4850 3750 
Q 5375 3275 5950 2675 
Q 5750 2525 5500 2300 
Q 5075 2800 4450 3400 
Q 4675 3575 4850 3750 
z
M 1825 3500 
Q 1700 3375 1425 3025 
Q 1150 2675 825 2300 
Q 575 2475 375 2600 
Q 975 3150 1300 3825 
Q 1525 3650 1825 3500 
z
" transform="scale(0.015625)"/>
      <path id="SimHei-5316" d="M 3925 5025 
Q 3900 4900 3900 4400 
L 3900 2625 
Q 4375 3025 4775 3450 
Q 5175 3875 5400 4300 
Q 5600 4100 5900 3925 
Q 5700 3700 5225 3212 
Q 4750 2725 4487 2512 
Q 4225 2300 3900 2025 
L 3900 450 
Q 3900 50 4225 50 
L 5200 50 
Q 5400 75 5462 262 
Q 5525 450 5575 850 
Q 5800 650 6150 600 
Q 6000 -100 5825 -250 
Q 5650 -400 5350 -400 
L 3950 -400 
Q 3425 -400 3400 200 
L 3400 1675 
Q 3225 1525 2962 1350 
Q 2700 1175 2375 975 
Q 2225 1225 2025 1400 
Q 2350 1550 2737 1787 
Q 3125 2025 3400 2250 
L 3400 4500 
Q 3400 4800 3375 5025 
L 3925 5025 
z
M 2400 4850 
Q 2175 4550 2075 4337 
Q 1975 4125 1825 3775 
L 1825 675 
Q 1825 -75 1850 -550 
L 1325 -550 
Q 1350 -125 1350 650 
L 1350 3050 
Q 1125 2725 962 2525 
Q 800 2325 675 2175 
Q 500 2375 275 2525 
Q 625 2850 875 3212 
Q 1125 3575 1312 3912 
Q 1500 4250 1625 4575 
Q 1750 4900 1825 5100 
Q 1975 4975 2400 4850 
z
" transform="scale(0.015625)"/>
     </defs>
     <use xlink:href="#SimHei-6bcf"/>
     <use xlink:href="#SimHei-4e2a" x="100"/>
     <use xlink:href="#SimHei-45" x="200"/>
     <use xlink:href="#SimHei-70" x="250"/>
     <use xlink:href="#SimHei-69" x="300"/>
     <use xlink:href="#SimHei-73" x="350"/>
     <use xlink:href="#SimHei-6f" x="400"/>
     <use xlink:href="#SimHei-64" x="450"/>
     <use xlink:href="#SimHei-65" x="500"/>
     <use xlink:href="#SimHei-7684" x="550"/>
     <use xlink:href="#SimHei-7d2f" x="650"/>
     <use xlink:href="#SimHei-8ba1" x="750"/>
     <use xlink:href="#SimHei-5956" x="850"/>
     <use xlink:href="#SimHei-52b1" x="950"/>
     <use xlink:href="#SimHei-53d8" x="1050"/>
     <use xlink:href="#SimHei-5316" x="1150"/>
    </g>
   </g>
   <g id="legend_1">
    <g id="patch_7">
     <path d="M 851.300938 144.31875 
L 1054.500937 144.31875 
Q 1057.700938 144.31875 1057.700938 141.11875 
L 1057.700938 73.84375 
Q 1057.700938 70.64375 1054.500937 70.64375 
L 851.300938 70.64375 
Q 848.100937 70.64375 848.100937 73.84375 
L 848.100937 141.11875 
Q 848.100937 144.31875 851.300938 144.31875 
z
" style="fill: #ffffff; opacity: 0.8; stroke: #cccccc; stroke-linejoin: miter"/>
    </g>
    <g id="line2d_26">
     <path d="M 854.500937 84.13125 
L 870.500937 84.13125 
L 886.500937 84.13125 
" style="fill: none; stroke: #0000ff; stroke-opacity: 0.6; stroke-width: 2; stroke-linecap: square"/>
    </g>
    <g id="text_15">
     <!-- 累计奖励 -->
     <g transform="translate(899.300937 89.73125) scale(0.16 -0.16)">
      <use xlink:href="#SimHei-7d2f"/>
      <use xlink:href="#SimHei-8ba1" x="100"/>
      <use xlink:href="#SimHei-5956" x="200"/>
      <use xlink:href="#SimHei-52b1" x="300"/>
     </g>
    </g>
    <g id="line2d_27">
     <path d="M 854.500937 107.13125 
L 870.500937 107.13125 
L 886.500937 107.13125 
" style="fill: none; stroke-dasharray: 7.4,3.2; stroke-dashoffset: 0; stroke: #ff0000; stroke-opacity: 0.8; stroke-width: 2"/>
    </g>
    <g id="text_16">
     <!-- 趋势线 -->
     <g transform="translate(899.300937 112.73125) scale(0.16 -0.16)">
      <defs>
       <path id="SimHei-8d8b" d="M 6000 -500 
Q 4950 -525 4237 -500 
Q 3525 -475 2950 -350 
Q 2375 -225 1950 25 
Q 1525 275 1100 700 
Q 875 -150 625 -600 
Q 400 -300 225 -225 
Q 500 175 600 587 
Q 700 1000 737 1375 
Q 775 1750 775 2025 
Q 1025 1950 1325 1925 
Q 1200 1550 1200 1250 
Q 1200 950 1700 625 
L 1700 2600 
Q 850 2600 400 2575 
L 400 2975 
Q 875 2950 1575 2950 
L 1575 3925 
Q 1050 3925 600 3900 
L 600 4325 
Q 1050 4300 1575 4300 
Q 1575 4750 1550 5200 
L 2050 5200 
Q 2025 4800 2025 4300 
Q 2400 4300 2800 4325 
L 2800 3900 
Q 2375 3925 2025 3925 
L 2025 2950 
Q 2550 2950 3000 2975 
L 3000 2575 
Q 2550 2600 2150 2600 
L 2150 1775 
Q 2475 1775 2850 1800 
L 2850 1400 
Q 2500 1425 2150 1425 
L 2150 350 
Q 2925 -50 4150 -50 
Q 5400 -50 6200 75 
Q 6025 -200 6000 -500 
z
M 5900 450 
Q 3750 450 3275 425 
L 3275 875 
Q 3750 850 5400 850 
L 5400 1625 
Q 3850 1625 3475 1600 
L 3475 2025 
Q 3850 2000 5400 2000 
L 5400 2875 
L 4075 2875 
Q 3775 2875 3425 2850 
L 3425 3150 
L 3350 3025 
Q 3150 3300 2925 3375 
Q 3325 3875 3575 4387 
Q 3825 4900 3925 5250 
Q 4225 5125 4475 5075 
Q 4350 4900 4150 4500 
L 5750 4500 
Q 5250 3675 5025 3225 
L 5900 3225 
Q 5875 2775 5875 1800 
Q 5875 850 5900 450 
z
M 3475 3250 
Q 3775 3225 4100 3225 
L 4525 3225 
Q 4675 3525 5025 4150 
L 3975 4150 
Q 3650 3525 3475 3250 
z
" transform="scale(0.015625)"/>
       <path id="SimHei-52bf" d="M 2700 1500 
Q 2725 1700 2725 1925 
Q 3075 1850 3275 1825 
Q 3225 1700 3200 1500 
L 5325 1500 
Q 5300 1150 5237 662 
Q 5175 175 5075 -62 
Q 4975 -300 4737 -375 
Q 4500 -450 3825 -525 
Q 3800 -275 3550 25 
Q 4325 -25 4475 62 
Q 4625 150 4675 350 
Q 4725 550 4775 1100 
L 3125 1100 
Q 2850 325 2250 -12 
Q 1650 -350 775 -600 
Q 675 -325 400 -125 
Q 1050 -50 1687 225 
Q 2325 500 2600 1100 
L 1550 1100 
Q 1075 1100 650 1075 
L 650 1525 
Q 1075 1500 1550 1500 
L 2700 1500 
z
M 2350 2250 
Q 3025 2500 3350 3050 
Q 3175 3175 2850 3325 
Q 3025 3475 3100 3675 
L 3500 3425 
Q 3550 3625 3600 4075 
Q 3225 4075 2925 4025 
L 2875 4425 
L 3600 4425 
Q 3600 4900 3550 5200 
Q 3775 5150 4125 5125 
Q 4050 4875 4050 4450 
L 5275 4475 
Q 5200 3975 5175 3450 
Q 5150 2925 5262 2650 
Q 5375 2375 5487 2337 
Q 5600 2300 5600 2925 
Q 5800 2725 6125 2675 
Q 5975 2075 5875 1925 
Q 5775 1775 5600 1750 
Q 5425 1725 5112 2000 
Q 4800 2275 4725 2800 
Q 4650 3325 4725 4100 
L 4050 4075 
Q 4000 3525 3950 3200 
Q 4150 3075 4450 2900 
Q 4225 2725 4100 2550 
Q 3925 2700 3775 2800 
Q 3400 2325 2850 1950 
Q 2675 2125 2350 2250 
z
M 2525 3300 
Q 2125 3200 1950 3175 
L 1950 2250 
Q 1925 1975 1662 1900 
Q 1400 1825 1000 1750 
Q 975 2025 800 2300 
Q 1350 2275 1425 2325 
Q 1500 2375 1500 2625 
L 1500 3075 
Q 875 2900 450 2775 
Q 375 3050 225 3225 
Q 675 3275 1500 3450 
L 1500 4025 
Q 800 4025 425 4000 
L 425 4450 
Q 800 4425 1500 4425 
Q 1500 4875 1475 5150 
L 2025 5150 
Q 1950 4900 1950 4425 
Q 2200 4425 2575 4450 
L 2575 4000 
Q 2200 4025 1950 4025 
L 1950 3550 
Q 2250 3600 2550 3700 
Q 2525 3525 2525 3300 
z
" transform="scale(0.015625)"/>
       <path id="SimHei-7ebf" d="M 3450 4300 
Q 3450 4675 3375 5125 
Q 3700 5100 4050 5050 
Q 3975 4900 3950 4562 
Q 3925 4225 3950 3600 
L 4800 3750 
Q 5225 3850 5650 3975 
L 5750 3500 
Q 5325 3450 4875 3375 
L 3975 3200 
Q 3975 2800 4025 2500 
L 5000 2675 
Q 5500 2775 5950 2925 
L 6025 2450 
Q 5575 2375 5075 2275 
L 4100 2100 
Q 4150 1600 4350 1175 
Q 4575 1350 4787 1575 
Q 5000 1800 5175 2075 
Q 5550 1775 5750 1675 
Q 5425 1525 5237 1337 
Q 5050 1150 4625 750 
Q 4925 250 5162 112 
Q 5400 -25 5500 100 
Q 5600 225 5675 625 
Q 5900 450 6200 350 
Q 5775 -750 5275 -537 
Q 4775 -325 4225 450 
Q 3875 175 3537 -62 
Q 3200 -300 2700 -550 
Q 2575 -300 2325 -100 
Q 2825 75 3175 275 
Q 3525 475 3975 850 
Q 3750 1350 3650 2025 
Q 2900 1900 2600 1800 
L 2525 2275 
Q 2825 2275 3550 2425 
Q 3500 2825 3500 3100 
Q 2825 2950 2575 2875 
L 2475 3350 
Q 2725 3350 3450 3500 
L 3450 4300 
z
M 1950 4875 
Q 1700 4650 1462 4237 
Q 1225 3825 825 3225 
Q 1425 3250 1650 3250 
Q 1875 3625 2050 4075 
Q 2300 3900 2600 3800 
Q 2350 3550 2087 3125 
Q 1825 2700 1175 1675 
Q 1850 1725 2375 1775 
Q 2300 1525 2300 1350 
Q 2125 1350 1525 1287 
Q 925 1225 550 1125 
Q 525 1375 400 1650 
Q 700 1725 950 2050 
Q 1200 2375 1475 2875 
Q 650 2825 425 2675 
Q 350 2950 200 3225 
Q 525 3450 825 3962 
Q 1125 4475 1375 5150 
Q 1625 4975 1950 4875 
z
M 2575 875 
Q 2550 600 2575 450 
Q 1950 325 1450 200 
Q 950 75 525 -75 
Q 450 200 250 475 
Q 950 550 1325 612 
Q 1700 675 2575 875 
z
M 4850 4025 
Q 4675 4300 4375 4675 
L 4775 4875 
Q 4875 4750 5275 4275 
Q 5025 4175 4850 4025 
z
" transform="scale(0.015625)"/>
      </defs>
      <use xlink:href="#SimHei-8d8b"/>
      <use xlink:href="#SimHei-52bf" x="100"/>
      <use xlink:href="#SimHei-7ebf" x="200"/>
     </g>
    </g>
    <g id="line2d_28">
     <path d="M 854.500937 130.31875 
L 870.500937 130.31875 
L 886.500937 130.31875 
" style="fill: none; stroke: #008000; stroke-opacity: 0.8; stroke-width: 2; stroke-linecap: square"/>
    </g>
    <g id="text_17">
     <!-- 10个Episode移动平均 -->
     <g transform="translate(899.300937 135.91875) scale(0.16 -0.16)">
      <defs>
       <path id="SimHei-79fb" d="M 4475 5050 
Q 4300 4875 4075 4500 
L 5850 4500 
Q 5475 3625 5212 3312 
Q 4950 3000 4450 2650 
Q 4675 2575 4925 2500 
Q 4775 2300 4650 2075 
L 6100 2075 
Q 5900 1325 5550 825 
Q 5200 325 4787 37 
Q 4375 -250 3900 -387 
Q 3425 -525 2950 -650 
Q 2850 -425 2600 -125 
Q 3275 -50 3712 37 
Q 4150 125 4525 400 
Q 4375 625 4000 1000 
Q 4125 1100 4325 1250 
Q 4525 1075 4900 675 
Q 5075 900 5250 1162 
Q 5425 1425 5500 1700 
L 4375 1700 
Q 4175 1500 3950 1287 
Q 3725 1075 3350 800 
Q 3150 1025 2950 1150 
Q 3600 1525 3875 1837 
Q 4150 2150 4325 2550 
Q 4025 2350 3750 2225 
Q 3475 2100 3050 1950 
Q 2950 2200 2675 2475 
Q 3150 2525 3475 2637 
Q 3800 2750 4225 3000 
Q 3875 3300 3675 3475 
Q 3775 3600 4000 3775 
Q 4325 3500 4575 3250 
Q 4775 3425 4925 3625 
Q 5075 3825 5175 4125 
L 3850 4125 
Q 3525 3600 3250 3275 
Q 3025 3425 2800 3550 
Q 3250 4000 3475 4387 
Q 3700 4775 3850 5225 
Q 4225 5100 4475 5050 
z
M 2850 4650 
Q 2650 4650 2400 4600 
Q 2150 4550 2000 4525 
L 2000 3425 
Q 2375 3425 2825 3450 
L 2825 3050 
Q 2375 3075 2000 3075 
L 2000 2175 
Q 2100 2300 2325 2525 
Q 2550 2225 2687 2062 
Q 2825 1900 3000 1675 
Q 2775 1550 2625 1375 
Q 2475 1600 2337 1737 
Q 2200 1875 2000 2100 
L 2000 525 
Q 2000 150 2025 -475 
L 1525 -475 
Q 1550 150 1550 525 
L 1550 2075 
Q 1400 1700 1237 1412 
Q 1075 1125 750 650 
Q 525 900 275 1050 
Q 450 1200 637 1425 
Q 825 1650 987 1937 
Q 1150 2225 1275 2525 
Q 1400 2825 1475 3075 
Q 1075 3075 350 3050 
L 350 3450 
Q 1075 3425 1550 3425 
L 1550 4425 
Q 925 4325 625 4250 
Q 525 4525 425 4725 
Q 825 4775 1025 4787 
Q 1225 4800 1475 4850 
L 2000 4975 
Q 2275 5050 2575 5150 
Q 2675 4900 2850 4650 
z
" transform="scale(0.015625)"/>
       <path id="SimHei-52a8" d="M 4125 5150 
Q 4425 5075 4700 5075 
Q 4650 4825 4637 4512 
Q 4625 4200 4625 3750 
L 6025 3750 
Q 6000 3425 5975 3025 
L 5850 175 
Q 5775 -325 5437 -437 
Q 5100 -550 4675 -600 
Q 4600 -300 4425 -50 
Q 4975 -75 5175 12 
Q 5375 100 5375 350 
L 5525 3325 
L 4625 3325 
Q 4575 2225 4462 1650 
Q 4350 1075 4112 587 
Q 3875 100 3150 -675 
Q 2900 -425 2700 -350 
Q 3175 25 3475 437 
Q 3775 850 3900 1287 
Q 4025 1725 4075 2200 
Q 4125 2675 4150 3325 
L 3725 3325 
Q 3450 3325 3075 3300 
L 3075 3775 
Q 3450 3750 3775 3750 
L 4150 3750 
L 4150 4450 
Q 4150 4800 4125 5150 
z
M 275 3025 
Q 650 3000 1175 3000 
L 2125 3000 
Q 2575 3000 3150 3025 
L 3150 2575 
Q 2575 2600 2150 2600 
L 1875 2600 
Q 1725 2200 1537 1750 
Q 1350 1300 1100 850 
Q 2075 950 2575 1050 
Q 2450 1350 2175 1800 
Q 2450 1950 2575 2050 
Q 2825 1600 3000 1287 
Q 3175 975 3375 525 
Q 3175 400 2925 275 
Q 2825 500 2750 650 
Q 1950 525 1462 450 
Q 975 375 625 250 
Q 525 500 375 725 
Q 700 925 962 1525 
Q 1225 2125 1350 2600 
L 1175 2600 
Q 650 2600 275 2575 
L 275 3025 
z
M 2000 4425 
Q 2425 4425 2950 4450 
L 2950 3975 
Q 2425 4000 2000 4000 
L 1400 4000 
Q 1000 4000 625 3975 
L 625 4450 
Q 975 4425 1375 4425 
L 2000 4425 
z
" transform="scale(0.015625)"/>
       <path id="SimHei-5e73" d="M 4525 4825 
Q 4900 4825 5450 4850 
L 5450 4375 
Q 4925 4400 4525 4400 
L 3475 4400 
L 3475 2025 
L 5000 2025 
Q 5550 2025 6025 2050 
L 6025 1575 
Q 5550 1600 5000 1600 
L 3475 1600 
L 3475 450 
Q 3475 -100 3500 -600 
L 2925 -600 
Q 2950 -100 2950 450 
L 2950 1600 
L 1125 1600 
Q 775 1600 375 1575 
L 375 2050 
Q 775 2025 1175 2025 
L 2950 2025 
L 2950 4400 
L 1775 4400 
Q 1400 4400 875 4375 
L 875 4850 
Q 1400 4825 1750 4825 
L 4525 4825 
z
M 3925 2600 
Q 4500 3300 4900 4125 
Q 5150 3950 5400 3825 
Q 4775 2850 4350 2300 
Q 4150 2475 3925 2600 
z
M 1975 2350 
Q 1600 3100 1050 3725 
Q 1250 3875 1450 4050 
Q 2075 3300 2450 2725 
Q 2150 2500 1975 2350 
z
" transform="scale(0.015625)"/>
       <path id="SimHei-5747" d="M 5775 275 
Q 5775 -325 5362 -450 
Q 4950 -575 4425 -600 
Q 4375 -275 4250 25 
Q 4950 -25 5125 62 
Q 5300 150 5300 500 
L 5375 3700 
L 3550 3700 
Q 3425 3375 3262 3037 
Q 3100 2700 2925 2400 
Q 2675 2550 2475 2625 
Q 3150 3625 3500 5200 
Q 3800 5100 4075 5025 
Q 3975 4875 3875 4650 
Q 3775 4425 3675 4125 
L 5900 4125 
L 5775 275 
z
M 1250 3625 
L 1250 4375 
Q 1250 4775 1225 5100 
L 1775 5100 
Q 1750 4725 1750 4375 
L 1750 3625 
L 1900 3625 
Q 2200 3625 2525 3650 
L 2525 3150 
Q 2200 3175 1900 3175 
L 1750 3175 
L 1750 1100 
L 2500 1375 
Q 2475 1125 2525 900 
Q 1225 475 962 362 
Q 700 250 475 150 
Q 375 475 250 750 
Q 575 800 800 850 
Q 1025 900 1250 975 
L 1250 3175 
L 1125 3175 
Q 850 3175 400 3150 
L 400 3650 
Q 850 3625 1100 3625 
L 1250 3625 
z
M 4950 1625 
Q 4675 1425 4137 1050 
Q 3600 675 3175 300 
Q 3000 575 2850 775 
Q 3350 1050 3762 1325 
Q 4175 1600 4775 2075 
Q 4825 1850 4950 1625 
z
M 3775 3150 
Q 4125 2800 4475 2300 
Q 4250 2125 4100 1975 
Q 3900 2325 3450 2825 
Q 3600 3000 3775 3150 
z
" transform="scale(0.015625)"/>
      </defs>
      <use xlink:href="#SimHei-31"/>
      <use xlink:href="#SimHei-30" x="50"/>
      <use xlink:href="#SimHei-4e2a" x="100"/>
      <use xlink:href="#SimHei-45" x="200"/>
      <use xlink:href="#SimHei-70" x="250"/>
      <use xlink:href="#SimHei-69" x="300"/>
      <use xlink:href="#SimHei-73" x="350"/>
      <use xlink:href="#SimHei-6f" x="400"/>
      <use xlink:href="#SimHei-64" x="450"/>
      <use xlink:href="#SimHei-65" x="500"/>
      <use xlink:href="#SimHei-79fb" x="550"/>
      <use xlink:href="#SimHei-52a8" x="650"/>
      <use xlink:href="#SimHei-5e73" x="750"/>
      <use xlink:href="#SimHei-5747" x="850"/>
     </g>
    </g>
   </g>
  </g>
  <g id="text_18">
   <!-- DRL训练过程分析 -->
   <g transform="translate(446.500937 26.5125) scale(0.24 -0.24)">
    <defs>
     <path id="SimHei-44" d="M 2925 2250 
Q 2925 1100 2437 612 
Q 1950 125 1125 125 
L 275 125 
L 275 4400 
L 1125 4400 
Q 2050 4400 2487 3900 
Q 2925 3400 2925 2250 
z
M 2325 2250 
Q 2325 3175 2025 3550 
Q 1725 3925 1125 3925 
L 850 3925 
L 850 600 
L 1125 600 
Q 1725 600 2025 962 
Q 2325 1325 2325 2250 
z
" transform="scale(0.015625)"/>
     <path id="SimHei-52" d="M 3000 125 
L 2400 125 
L 1500 1975 
L 850 1975 
L 850 125 
L 275 125 
L 275 4400 
L 1525 4400 
Q 2125 4400 2500 4112 
Q 2875 3825 2875 3175 
Q 2875 2675 2625 2400 
Q 2375 2125 2050 2050 
L 3000 125 
z
M 2300 3175 
Q 2300 3525 2087 3725 
Q 1875 3925 1400 3925 
L 850 3925 
L 850 2450 
L 1550 2450 
Q 1850 2450 2075 2612 
Q 2300 2775 2300 3175 
z
" transform="scale(0.015625)"/>
     <path id="SimHei-4c" d="M 2900 125 
L 300 125 
L 300 4400 
L 875 4400 
L 875 600 
L 2900 600 
L 2900 125 
z
" transform="scale(0.015625)"/>
     <path id="SimHei-8bad" d="M 1650 3300 
Q 1625 2725 1625 2225 
L 1625 675 
Q 1950 1125 2050 1275 
Q 2175 1125 2350 900 
Q 2025 500 1800 212 
Q 1575 -75 1325 -425 
Q 1150 -200 950 -50 
Q 1150 225 1150 625 
L 1150 2875 
L 975 2875 
Q 600 2875 300 2850 
L 300 3325 
Q 600 3300 975 3300 
L 1650 3300 
z
M 3425 4600 
Q 3375 4350 3387 3362 
Q 3400 2375 3337 1887 
Q 3275 1400 3087 837 
Q 2900 275 2450 -375 
Q 2225 -200 1975 -125 
Q 2550 500 2762 1362 
Q 2975 2225 2950 3337 
Q 2925 4450 2900 4675 
Q 3150 4625 3425 4600 
z
M 5875 4700 
Q 5850 4500 5850 3975 
L 5850 625 
Q 5850 125 5875 -400 
L 5400 -400 
Q 5425 125 5425 600 
L 5425 3975 
Q 5425 4500 5400 4700 
L 5875 4700 
z
M 4600 175 
L 4125 175 
Q 4150 725 4150 1150 
L 4150 3600 
Q 4150 4050 4125 4350 
L 4600 4350 
L 4600 175 
z
M 1000 5150 
Q 1650 4600 2100 4100 
Q 1875 3925 1750 3750 
Q 1050 4550 700 4800 
Q 850 4950 1000 5150 
z
" transform="scale(0.015625)"/>
     <path id="SimHei-7ec3" d="M 3300 3825 
Q 2950 3825 2400 3800 
L 2400 4250 
Q 2950 4225 3325 4225 
L 3625 4225 
Q 3875 4950 3900 5175 
Q 4200 5025 4450 4925 
Q 4350 4825 4262 4612 
Q 4175 4400 4100 4225 
L 5025 4225 
Q 5425 4225 5900 4250 
L 5900 3800 
Q 5550 3825 5025 3825 
L 3975 3825 
Q 3850 3525 3700 3150 
L 4675 3150 
Q 4650 2875 4650 2475 
L 4650 1975 
L 4975 1975 
Q 5350 1975 5800 2000 
L 5800 1550 
Q 5350 1575 4975 1575 
L 4650 1575 
L 4650 125 
Q 4650 -300 4462 -425 
Q 4275 -550 3650 -625 
Q 3625 -375 3450 -100 
Q 4075 -125 4137 -25 
Q 4200 75 4200 325 
L 4200 1575 
L 3425 1575 
Q 3250 1575 3100 1562 
Q 2950 1550 2750 1475 
Q 2650 1725 2550 1950 
Q 2800 2025 3125 2775 
Q 2950 2775 2450 2750 
L 2450 3175 
Q 3025 3150 3250 3150 
Q 3400 3525 3500 3825 
L 3300 3825 
z
M 1650 2950 
Q 1875 3300 2100 3900 
Q 2325 3725 2575 3600 
Q 2325 3275 2025 2750 
Q 1725 2225 1075 1350 
Q 1300 1400 2400 1575 
Q 2350 1300 2375 1150 
Q 1825 1100 650 825 
Q 525 1075 400 1275 
Q 625 1400 887 1737 
Q 1150 2075 1450 2575 
Q 1300 2600 1012 2562 
Q 725 2525 450 2450 
Q 350 2675 250 2925 
Q 500 3075 812 3725 
Q 1125 4375 1325 5000 
Q 1600 4825 1850 4750 
Q 1600 4375 1387 3962 
Q 1175 3550 800 2925 
Q 1375 2925 1650 2950 
z
M 2425 700 
Q 2400 425 2425 250 
Q 2000 150 1462 -25 
Q 925 -200 475 -425 
Q 400 -150 300 125 
Q 950 275 1187 337 
Q 1425 400 2425 700 
z
M 3725 875 
Q 3650 800 3287 400 
Q 2925 0 2475 -475 
Q 2300 -250 2150 -125 
Q 2425 100 2750 462 
Q 3075 825 3325 1225 
Q 3475 1050 3725 875 
z
M 5275 1225 
Q 5925 375 6200 -100 
Q 5950 -200 5750 -375 
Q 5475 175 4900 950 
Q 5075 1050 5275 1225 
z
M 4200 1975 
L 4200 2775 
L 3575 2775 
Q 3325 2250 3175 1975 
L 4200 1975 
z
" transform="scale(0.015625)"/>
     <path id="SimHei-8fc7" d="M 250 -200 
Q 1025 475 1275 650 
L 1275 2475 
Q 675 2475 400 2450 
L 400 2950 
Q 625 2900 1325 2900 
L 1800 2900 
Q 1775 2525 1775 2150 
L 1775 600 
Q 2500 -25 3912 -37 
Q 5325 -50 6150 75 
Q 6000 -175 5925 -550 
L 4425 -550 
Q 3800 -550 3275 -512 
Q 2750 -475 2387 -300 
Q 2025 -125 1750 75 
Q 1475 275 1237 37 
Q 1000 -200 700 -625 
Q 550 -375 250 -200 
z
M 3625 850 
Q 4200 825 4350 875 
Q 4500 925 4500 1300 
L 4500 3575 
L 2875 3575 
Q 2600 3575 2275 3550 
L 2275 4025 
Q 2600 4000 3075 4000 
L 4500 4000 
Q 4500 4650 4450 5125 
L 5025 5125 
Q 5000 4800 5000 4000 
Q 5525 4000 5950 4025 
L 5950 3550 
Q 5550 3575 5000 3575 
L 5000 1100 
Q 5000 525 4662 412 
Q 4325 300 3825 275 
Q 3775 550 3625 850 
z
M 3125 1600 
Q 2900 2275 2575 2850 
Q 2800 2950 3050 3125 
Q 3500 2225 3625 1875 
Q 3450 1775 3125 1600 
z
M 1150 4975 
Q 1400 4675 1925 3875 
Q 1675 3725 1450 3550 
Q 950 4400 700 4625 
Q 925 4750 1150 4975 
z
" transform="scale(0.015625)"/>
     <path id="SimHei-7a0b" d="M 5825 4975 
Q 5800 4425 5800 3975 
Q 5800 3550 5825 3125 
L 3025 3125 
Q 3050 3600 3050 4025 
Q 3050 4450 3025 4975 
L 5825 4975 
z
M 400 4825 
Q 825 4875 1362 4987 
Q 1900 5100 2275 5275 
Q 2450 4950 2625 4725 
Q 2450 4750 2262 4712 
Q 2075 4675 1850 4650 
L 1850 3425 
Q 2200 3425 2600 3450 
L 2600 2975 
Q 2200 3000 1850 3000 
L 1850 800 
Q 1850 250 1875 -675 
L 1375 -675 
Q 1400 250 1400 775 
L 1400 1925 
Q 1050 1225 625 600 
Q 450 850 225 1050 
Q 575 1400 850 1850 
Q 1125 2300 1350 3000 
Q 725 3000 425 2975 
L 425 3450 
Q 850 3425 1050 3425 
L 1400 3425 
L 1400 4550 
Q 1075 4475 575 4400 
Q 500 4625 400 4825 
z
M 5100 2500 
Q 5500 2500 5950 2525 
L 5950 2075 
Q 5500 2100 5100 2100 
L 4625 2100 
L 4625 1300 
L 4900 1300 
Q 5275 1300 5775 1325 
L 5775 850 
Q 5275 875 4975 875 
L 4625 875 
L 4625 0 
L 5225 0 
Q 5675 0 6175 25 
L 6175 -450 
Q 5775 -425 5225 -425 
L 3550 -425 
Q 3000 -425 2600 -475 
L 2600 25 
Q 3000 0 3550 0 
L 4150 0 
L 4150 875 
L 3800 875 
Q 3400 875 3050 825 
L 3050 1325 
Q 3400 1300 3800 1300 
L 4150 1300 
L 4150 2100 
L 3750 2100 
Q 3300 2100 2900 2075 
L 2900 2525 
Q 3300 2500 3750 2500 
L 5100 2500 
z
M 5275 3575 
L 5275 4550 
L 3500 4550 
L 3500 3575 
L 5275 3575 
z
M 2300 2400 
Q 2550 2025 2825 1525 
Q 2675 1425 2425 1225 
Q 2175 1775 1925 2125 
Q 2075 2250 2300 2400 
z
" transform="scale(0.015625)"/>
     <path id="SimHei-5206" d="M 1000 -650 
Q 825 -375 575 -225 
Q 975 -75 1300 137 
Q 1625 350 1875 662 
Q 2125 975 2250 1350 
Q 2375 1725 2425 2275 
Q 1850 2275 1500 2250 
L 1500 2775 
Q 1900 2750 2525 2750 
L 5025 2750 
Q 4975 2375 4950 2100 
L 4750 250 
Q 4700 -200 4350 -350 
Q 4000 -500 3575 -525 
Q 3550 -275 3325 50 
Q 3850 25 4037 87 
Q 4225 150 4275 525 
L 4450 2275 
L 2950 2275 
Q 2875 1625 2737 1187 
Q 2600 750 2350 425 
Q 2100 100 1750 -175 
Q 1400 -450 1000 -650 
z
M 3950 5175 
Q 4125 4650 4662 3975 
Q 5200 3300 6175 2800 
Q 5975 2625 5775 2275 
Q 5325 2600 4987 2887 
Q 4650 3175 4425 3425 
Q 4200 3675 3925 4137 
Q 3650 4600 3475 5000 
Q 3750 5075 3950 5175 
z
M 2700 4825 
Q 2475 4425 2325 4125 
Q 2175 3825 2025 3587 
Q 1875 3350 1575 2950 
Q 1275 2550 850 2125 
Q 625 2350 400 2475 
Q 900 2925 1187 3300 
Q 1475 3675 1737 4112 
Q 2000 4550 2200 5075 
Q 2400 4925 2700 4825 
z
" transform="scale(0.015625)"/>
     <path id="SimHei-6790" d="M 5900 4550 
Q 5575 4525 5087 4450 
Q 4600 4375 3725 4275 
L 3725 3075 
L 5400 3075 
Q 5725 3075 6150 3100 
L 6150 2650 
Q 5700 2675 5250 2675 
L 5250 350 
Q 5250 -100 5275 -475 
L 4750 -475 
Q 4775 -75 4775 375 
L 4775 2675 
L 3725 2675 
Q 3725 2175 3650 1637 
Q 3575 1100 3437 637 
Q 3300 175 2850 -500 
Q 2675 -300 2275 -150 
Q 2825 325 3050 1112 
Q 3275 1900 3262 3000 
Q 3250 4100 3225 4650 
Q 3975 4700 4562 4800 
Q 5150 4900 5500 5050 
Q 5675 4750 5900 4550 
z
M 1900 525 
Q 1900 200 1925 -525 
L 1400 -525 
Q 1425 25 1425 525 
L 1425 2250 
Q 1175 1625 600 800 
Q 425 1075 200 1225 
Q 650 1725 962 2387 
Q 1275 3050 1375 3425 
Q 925 3425 450 3400 
L 450 3850 
Q 925 3825 1425 3825 
L 1425 4450 
Q 1425 4775 1400 5125 
L 1950 5125 
Q 1900 4825 1900 4450 
L 1900 3825 
Q 2300 3825 2775 3850 
L 2775 3400 
Q 2300 3425 1900 3425 
L 1900 525 
z
M 2375 2750 
Q 2800 2050 2925 1800 
Q 2700 1700 2450 1550 
Q 2300 1900 1950 2525 
Q 2175 2625 2375 2750 
z
" transform="scale(0.015625)"/>
    </defs>
    <use xlink:href="#SimHei-44"/>
    <use xlink:href="#SimHei-52" x="50"/>
    <use xlink:href="#SimHei-4c" x="100"/>
    <use xlink:href="#SimHei-8bad" x="150"/>
    <use xlink:href="#SimHei-7ec3" x="250"/>
    <use xlink:href="#SimHei-8fc7" x="350"/>
    <use xlink:href="#SimHei-7a0b" x="450"/>
    <use xlink:href="#SimHei-5206" x="550"/>
    <use xlink:href="#SimHei-6790" x="650"/>
   </g>
  </g>
 </g>
 <defs>
  <clipPath id="p9edcdb2ffd">
   <rect x="59.745938" y="62.64375" width="1005.955" height="459.15625"/>
  </clipPath>
 </defs>
</svg>
