<?xml version="1.0" encoding="utf-8" standalone="no"?>
<!DOCTYPE svg PUBLIC "-//W3C//DTD SVG 1.1//EN"
  "http://www.w3.org/Graphics/SVG/1.1/DTD/svg11.dtd">
<svg xmlns:xlink="http://www.w3.org/1999/xlink" width="856.578437pt" height="708.335312pt" viewBox="0 0 856.578437 708.335312" xmlns="http://www.w3.org/2000/svg" version="1.1">
 <metadata>
  <rdf:RDF xmlns:dc="http://purl.org/dc/elements/1.1/" xmlns:cc="http://creativecommons.org/ns#" xmlns:rdf="http://www.w3.org/1999/02/22-rdf-syntax-ns#">
   <cc:Work>
    <dc:type rdf:resource="http://purl.org/dc/dcmitype/StillImage"/>
    <dc:date>2025-06-06T16:06:11.490939</dc:date>
    <dc:format>image/svg+xml</dc:format>
    <dc:creator>
     <cc:Agent>
      <dc:title>Matplotlib v3.6.2, https://matplotlib.org/</dc:title>
     </cc:Agent>
    </dc:creator>
   </cc:Work>
  </rdf:RDF>
 </metadata>
 <defs>
  <style type="text/css">*{stroke-linejoin: round; stroke-linecap: butt}</style>
 </defs>
 <g id="figure_1">
  <g id="patch_1">
   <path d="M 0 708.335312 
L 856.578437 708.335312 
L 856.578437 0 
L 0 0 
z
" style="fill: #ffffff"/>
  </g>
  <g id="axes_1">
   <g id="patch_2">
    <path d="M 51.942188 324.55375 
L 849.378438 324.55375 
L 849.378438 28.8675 
L 51.942188 28.8675 
z
" style="fill: #ffffff"/>
   </g>
   <g id="matplotlib.axis_1">
    <g id="xtick_1">
     <g id="line2d_1">
      <path d="M 128.61875 324.55375 
L 128.61875 28.8675 
" clip-path="url(#p195e0729af)" style="fill: none; stroke: #b0b0b0; stroke-width: 0.8; stroke-linecap: square"/>
     </g>
     <g id="line2d_2">
      <defs>
       <path id="m886a3bd509" d="M 0 0 
L 0 3.5 
" style="stroke: #000000; stroke-width: 0.8"/>
      </defs>
      <g>
       <use xlink:href="#m886a3bd509" x="128.61875" y="324.55375" style="stroke: #000000; stroke-width: 0.8"/>
      </g>
     </g>
     <g id="text_1">
      <!-- 5 -->
      <g transform="translate(125.61875 339.88625) scale(0.12 -0.12)">
       <defs>
        <path id="TimesNewRomanPSMT-35" d="M 2778 4238 
L 2534 3706 
L 1259 3706 
L 981 3138 
Q 1809 3016 2294 2522 
Q 2709 2097 2709 1522 
Q 2709 1188 2573 903 
Q 2438 619 2231 419 
Q 2025 219 1772 97 
Q 1413 -75 1034 -75 
Q 653 -75 479 54 
Q 306 184 306 341 
Q 306 428 378 495 
Q 450 563 559 563 
Q 641 563 702 538 
Q 763 513 909 409 
Q 1144 247 1384 247 
Q 1750 247 2026 523 
Q 2303 800 2303 1197 
Q 2303 1581 2056 1914 
Q 1809 2247 1375 2428 
Q 1034 2569 447 2591 
L 1259 4238 
L 2778 4238 
z
" transform="scale(0.015625)"/>
       </defs>
       <use xlink:href="#TimesNewRomanPSMT-35"/>
      </g>
     </g>
    </g>
    <g id="xtick_2">
     <g id="line2d_3">
      <path d="M 205.295313 324.55375 
L 205.295313 28.8675 
" clip-path="url(#p195e0729af)" style="fill: none; stroke: #b0b0b0; stroke-width: 0.8; stroke-linecap: square"/>
     </g>
     <g id="line2d_4">
      <g>
       <use xlink:href="#m886a3bd509" x="205.295313" y="324.55375" style="stroke: #000000; stroke-width: 0.8"/>
      </g>
     </g>
     <g id="text_2">
      <!-- 10 -->
      <g transform="translate(199.295313 339.88625) scale(0.12 -0.12)">
       <defs>
        <path id="TimesNewRomanPSMT-31" d="M 750 3822 
L 1781 4325 
L 1884 4325 
L 1884 747 
Q 1884 391 1914 303 
Q 1944 216 2037 169 
Q 2131 122 2419 116 
L 2419 0 
L 825 0 
L 825 116 
Q 1125 122 1212 167 
Q 1300 213 1334 289 
Q 1369 366 1369 747 
L 1369 3034 
Q 1369 3497 1338 3628 
Q 1316 3728 1258 3775 
Q 1200 3822 1119 3822 
Q 1003 3822 797 3725 
L 750 3822 
z
" transform="scale(0.015625)"/>
        <path id="TimesNewRomanPSMT-30" d="M 231 2094 
Q 231 2819 450 3342 
Q 669 3866 1031 4122 
Q 1313 4325 1613 4325 
Q 2100 4325 2488 3828 
Q 2972 3213 2972 2159 
Q 2972 1422 2759 906 
Q 2547 391 2217 158 
Q 1888 -75 1581 -75 
Q 975 -75 572 641 
Q 231 1244 231 2094 
z
M 844 2016 
Q 844 1141 1059 588 
Q 1238 122 1591 122 
Q 1759 122 1940 273 
Q 2122 425 2216 781 
Q 2359 1319 2359 2297 
Q 2359 3022 2209 3506 
Q 2097 3866 1919 4016 
Q 1791 4119 1609 4119 
Q 1397 4119 1231 3928 
Q 1006 3669 925 3112 
Q 844 2556 844 2016 
z
" transform="scale(0.015625)"/>
       </defs>
       <use xlink:href="#TimesNewRomanPSMT-31"/>
       <use xlink:href="#TimesNewRomanPSMT-30" x="50"/>
      </g>
     </g>
    </g>
    <g id="xtick_3">
     <g id="line2d_5">
      <path d="M 281.971875 324.55375 
L 281.971875 28.8675 
" clip-path="url(#p195e0729af)" style="fill: none; stroke: #b0b0b0; stroke-width: 0.8; stroke-linecap: square"/>
     </g>
     <g id="line2d_6">
      <g>
       <use xlink:href="#m886a3bd509" x="281.971875" y="324.55375" style="stroke: #000000; stroke-width: 0.8"/>
      </g>
     </g>
     <g id="text_3">
      <!-- 15 -->
      <g transform="translate(275.971875 339.88625) scale(0.12 -0.12)">
       <use xlink:href="#TimesNewRomanPSMT-31"/>
       <use xlink:href="#TimesNewRomanPSMT-35" x="50"/>
      </g>
     </g>
    </g>
    <g id="xtick_4">
     <g id="line2d_7">
      <path d="M 358.648438 324.55375 
L 358.648438 28.8675 
" clip-path="url(#p195e0729af)" style="fill: none; stroke: #b0b0b0; stroke-width: 0.8; stroke-linecap: square"/>
     </g>
     <g id="line2d_8">
      <g>
       <use xlink:href="#m886a3bd509" x="358.648438" y="324.55375" style="stroke: #000000; stroke-width: 0.8"/>
      </g>
     </g>
     <g id="text_4">
      <!-- 20 -->
      <g transform="translate(352.648438 339.88625) scale(0.12 -0.12)">
       <defs>
        <path id="TimesNewRomanPSMT-32" d="M 2934 816 
L 2638 0 
L 138 0 
L 138 116 
Q 1241 1122 1691 1759 
Q 2141 2397 2141 2925 
Q 2141 3328 1894 3587 
Q 1647 3847 1303 3847 
Q 991 3847 742 3664 
Q 494 3481 375 3128 
L 259 3128 
Q 338 3706 661 4015 
Q 984 4325 1469 4325 
Q 1984 4325 2329 3994 
Q 2675 3663 2675 3213 
Q 2675 2891 2525 2569 
Q 2294 2063 1775 1497 
Q 997 647 803 472 
L 1909 472 
Q 2247 472 2383 497 
Q 2519 522 2628 598 
Q 2738 675 2819 816 
L 2934 816 
z
" transform="scale(0.015625)"/>
       </defs>
       <use xlink:href="#TimesNewRomanPSMT-32"/>
       <use xlink:href="#TimesNewRomanPSMT-30" x="50"/>
      </g>
     </g>
    </g>
    <g id="xtick_5">
     <g id="line2d_9">
      <path d="M 435.325 324.55375 
L 435.325 28.8675 
" clip-path="url(#p195e0729af)" style="fill: none; stroke: #b0b0b0; stroke-width: 0.8; stroke-linecap: square"/>
     </g>
     <g id="line2d_10">
      <g>
       <use xlink:href="#m886a3bd509" x="435.325" y="324.55375" style="stroke: #000000; stroke-width: 0.8"/>
      </g>
     </g>
     <g id="text_5">
      <!-- 25 -->
      <g transform="translate(429.325 339.88625) scale(0.12 -0.12)">
       <use xlink:href="#TimesNewRomanPSMT-32"/>
       <use xlink:href="#TimesNewRomanPSMT-35" x="50"/>
      </g>
     </g>
    </g>
    <g id="xtick_6">
     <g id="line2d_11">
      <path d="M 512.001563 324.55375 
L 512.001563 28.8675 
" clip-path="url(#p195e0729af)" style="fill: none; stroke: #b0b0b0; stroke-width: 0.8; stroke-linecap: square"/>
     </g>
     <g id="line2d_12">
      <g>
       <use xlink:href="#m886a3bd509" x="512.001563" y="324.55375" style="stroke: #000000; stroke-width: 0.8"/>
      </g>
     </g>
     <g id="text_6">
      <!-- 30 -->
      <g transform="translate(506.001563 339.88625) scale(0.12 -0.12)">
       <defs>
        <path id="TimesNewRomanPSMT-33" d="M 325 3431 
Q 506 3859 782 4092 
Q 1059 4325 1472 4325 
Q 1981 4325 2253 3994 
Q 2459 3747 2459 3466 
Q 2459 3003 1878 2509 
Q 2269 2356 2469 2072 
Q 2669 1788 2669 1403 
Q 2669 853 2319 450 
Q 1863 -75 997 -75 
Q 569 -75 414 31 
Q 259 138 259 259 
Q 259 350 332 419 
Q 406 488 509 488 
Q 588 488 669 463 
Q 722 447 909 348 
Q 1097 250 1169 231 
Q 1284 197 1416 197 
Q 1734 197 1970 444 
Q 2206 691 2206 1028 
Q 2206 1275 2097 1509 
Q 2016 1684 1919 1775 
Q 1784 1900 1550 2001 
Q 1316 2103 1072 2103 
L 972 2103 
L 972 2197 
Q 1219 2228 1467 2375 
Q 1716 2522 1828 2728 
Q 1941 2934 1941 3181 
Q 1941 3503 1739 3701 
Q 1538 3900 1238 3900 
Q 753 3900 428 3381 
L 325 3431 
z
" transform="scale(0.015625)"/>
       </defs>
       <use xlink:href="#TimesNewRomanPSMT-33"/>
       <use xlink:href="#TimesNewRomanPSMT-30" x="50"/>
      </g>
     </g>
    </g>
    <g id="xtick_7">
     <g id="line2d_13">
      <path d="M 588.678125 324.55375 
L 588.678125 28.8675 
" clip-path="url(#p195e0729af)" style="fill: none; stroke: #b0b0b0; stroke-width: 0.8; stroke-linecap: square"/>
     </g>
     <g id="line2d_14">
      <g>
       <use xlink:href="#m886a3bd509" x="588.678125" y="324.55375" style="stroke: #000000; stroke-width: 0.8"/>
      </g>
     </g>
     <g id="text_7">
      <!-- 35 -->
      <g transform="translate(582.678125 339.88625) scale(0.12 -0.12)">
       <use xlink:href="#TimesNewRomanPSMT-33"/>
       <use xlink:href="#TimesNewRomanPSMT-35" x="50"/>
      </g>
     </g>
    </g>
    <g id="xtick_8">
     <g id="line2d_15">
      <path d="M 665.354688 324.55375 
L 665.354688 28.8675 
" clip-path="url(#p195e0729af)" style="fill: none; stroke: #b0b0b0; stroke-width: 0.8; stroke-linecap: square"/>
     </g>
     <g id="line2d_16">
      <g>
       <use xlink:href="#m886a3bd509" x="665.354688" y="324.55375" style="stroke: #000000; stroke-width: 0.8"/>
      </g>
     </g>
     <g id="text_8">
      <!-- 40 -->
      <g transform="translate(659.354688 339.88625) scale(0.12 -0.12)">
       <defs>
        <path id="TimesNewRomanPSMT-34" d="M 2978 1563 
L 2978 1119 
L 2409 1119 
L 2409 0 
L 1894 0 
L 1894 1119 
L 100 1119 
L 100 1519 
L 2066 4325 
L 2409 4325 
L 2409 1563 
L 2978 1563 
z
M 1894 1563 
L 1894 3666 
L 406 1563 
L 1894 1563 
z
" transform="scale(0.015625)"/>
       </defs>
       <use xlink:href="#TimesNewRomanPSMT-34"/>
       <use xlink:href="#TimesNewRomanPSMT-30" x="50"/>
      </g>
     </g>
    </g>
    <g id="xtick_9">
     <g id="line2d_17">
      <path d="M 742.03125 324.55375 
L 742.03125 28.8675 
" clip-path="url(#p195e0729af)" style="fill: none; stroke: #b0b0b0; stroke-width: 0.8; stroke-linecap: square"/>
     </g>
     <g id="line2d_18">
      <g>
       <use xlink:href="#m886a3bd509" x="742.03125" y="324.55375" style="stroke: #000000; stroke-width: 0.8"/>
      </g>
     </g>
     <g id="text_9">
      <!-- 45 -->
      <g transform="translate(736.03125 339.88625) scale(0.12 -0.12)">
       <use xlink:href="#TimesNewRomanPSMT-34"/>
       <use xlink:href="#TimesNewRomanPSMT-35" x="50"/>
      </g>
     </g>
    </g>
    <g id="xtick_10">
     <g id="line2d_19">
      <path d="M 818.707813 324.55375 
L 818.707813 28.8675 
" clip-path="url(#p195e0729af)" style="fill: none; stroke: #b0b0b0; stroke-width: 0.8; stroke-linecap: square"/>
     </g>
     <g id="line2d_20">
      <g>
       <use xlink:href="#m886a3bd509" x="818.707813" y="324.55375" style="stroke: #000000; stroke-width: 0.8"/>
      </g>
     </g>
     <g id="text_10">
      <!-- 50 -->
      <g transform="translate(812.707813 339.88625) scale(0.12 -0.12)">
       <use xlink:href="#TimesNewRomanPSMT-35"/>
       <use xlink:href="#TimesNewRomanPSMT-30" x="50"/>
      </g>
     </g>
    </g>
    <g id="text_11">
     <!-- Step -->
     <g transform="translate(438.215625 356.174375) scale(0.14 -0.14)">
      <defs>
       <path id="TimesNewRomanPSMT-53" d="M 2934 4334 
L 2934 2869 
L 2819 2869 
Q 2763 3291 2617 3541 
Q 2472 3791 2203 3937 
Q 1934 4084 1647 4084 
Q 1322 4084 1109 3886 
Q 897 3688 897 3434 
Q 897 3241 1031 3081 
Q 1225 2847 1953 2456 
Q 2547 2138 2764 1967 
Q 2981 1797 3098 1565 
Q 3216 1334 3216 1081 
Q 3216 600 2842 251 
Q 2469 -97 1881 -97 
Q 1697 -97 1534 -69 
Q 1438 -53 1133 45 
Q 828 144 747 144 
Q 669 144 623 97 
Q 578 50 556 -97 
L 441 -97 
L 441 1356 
L 556 1356 
Q 638 900 775 673 
Q 913 447 1195 297 
Q 1478 147 1816 147 
Q 2206 147 2432 353 
Q 2659 559 2659 841 
Q 2659 997 2573 1156 
Q 2488 1316 2306 1453 
Q 2184 1547 1640 1851 
Q 1097 2156 867 2337 
Q 638 2519 519 2737 
Q 400 2956 400 3219 
Q 400 3675 750 4004 
Q 1100 4334 1641 4334 
Q 1978 4334 2356 4169 
Q 2531 4091 2603 4091 
Q 2684 4091 2736 4139 
Q 2788 4188 2819 4334 
L 2934 4334 
z
" transform="scale(0.015625)"/>
       <path id="TimesNewRomanPSMT-74" d="M 1031 3803 
L 1031 2863 
L 1700 2863 
L 1700 2644 
L 1031 2644 
L 1031 788 
Q 1031 509 1111 412 
Q 1191 316 1316 316 
Q 1419 316 1516 380 
Q 1613 444 1666 569 
L 1788 569 
Q 1678 263 1478 108 
Q 1278 -47 1066 -47 
Q 922 -47 784 33 
Q 647 113 581 261 
Q 516 409 516 719 
L 516 2644 
L 63 2644 
L 63 2747 
Q 234 2816 414 2980 
Q 594 3144 734 3369 
Q 806 3488 934 3803 
L 1031 3803 
z
" transform="scale(0.015625)"/>
       <path id="TimesNewRomanPSMT-65" d="M 681 1784 
Q 678 1147 991 784 
Q 1303 422 1725 422 
Q 2006 422 2214 576 
Q 2422 731 2563 1106 
L 2659 1044 
Q 2594 616 2278 264 
Q 1963 -88 1488 -88 
Q 972 -88 605 314 
Q 238 716 238 1394 
Q 238 2128 614 2539 
Q 991 2950 1559 2950 
Q 2041 2950 2350 2633 
Q 2659 2316 2659 1784 
L 681 1784 
z
M 681 1966 
L 2006 1966 
Q 1991 2241 1941 2353 
Q 1863 2528 1708 2628 
Q 1553 2728 1384 2728 
Q 1125 2728 920 2526 
Q 716 2325 681 1966 
z
" transform="scale(0.015625)"/>
       <path id="TimesNewRomanPSMT-70" d="M -6 2578 
L 875 2934 
L 994 2934 
L 994 2266 
Q 1216 2644 1439 2795 
Q 1663 2947 1909 2947 
Q 2341 2947 2628 2609 
Q 2981 2197 2981 1534 
Q 2981 794 2556 309 
Q 2206 -88 1675 -88 
Q 1444 -88 1275 -22 
Q 1150 25 994 166 
L 994 -706 
Q 994 -1000 1030 -1079 
Q 1066 -1159 1155 -1206 
Q 1244 -1253 1478 -1253 
L 1478 -1369 
L -22 -1369 
L -22 -1253 
L 56 -1253 
Q 228 -1256 350 -1188 
Q 409 -1153 442 -1076 
Q 475 -1000 475 -688 
L 475 2019 
Q 475 2297 450 2372 
Q 425 2447 370 2484 
Q 316 2522 222 2522 
Q 147 2522 31 2478 
L -6 2578 
z
M 994 2081 
L 994 1013 
Q 994 666 1022 556 
Q 1066 375 1236 237 
Q 1406 100 1666 100 
Q 1978 100 2172 344 
Q 2425 663 2425 1241 
Q 2425 1897 2138 2250 
Q 1938 2494 1663 2494 
Q 1513 2494 1366 2419 
Q 1253 2363 994 2081 
z
" transform="scale(0.015625)"/>
      </defs>
      <use xlink:href="#TimesNewRomanPSMT-53"/>
      <use xlink:href="#TimesNewRomanPSMT-74" x="55.615234"/>
      <use xlink:href="#TimesNewRomanPSMT-65" x="83.398438"/>
      <use xlink:href="#TimesNewRomanPSMT-70" x="127.783203"/>
     </g>
    </g>
   </g>
   <g id="matplotlib.axis_2">
    <g id="ytick_1">
     <g id="line2d_21">
      <path d="M 51.942188 292.687093 
L 849.378438 292.687093 
" clip-path="url(#p195e0729af)" style="fill: none; stroke: #b0b0b0; stroke-width: 0.8; stroke-linecap: square"/>
     </g>
     <g id="line2d_22">
      <defs>
       <path id="m5d3ad7fc0f" d="M 0 0 
L -3.5 0 
" style="stroke: #000000; stroke-width: 0.8"/>
      </defs>
      <g>
       <use xlink:href="#m5d3ad7fc0f" x="51.942188" y="292.687093" style="stroke: #000000; stroke-width: 0.8"/>
      </g>
     </g>
     <g id="text_12">
      <!-- 2.5 -->
      <g transform="translate(29.942188 296.853343) scale(0.12 -0.12)">
       <defs>
        <path id="TimesNewRomanPSMT-2e" d="M 800 606 
Q 947 606 1047 504 
Q 1147 403 1147 259 
Q 1147 116 1045 14 
Q 944 -88 800 -88 
Q 656 -88 554 14 
Q 453 116 453 259 
Q 453 406 554 506 
Q 656 606 800 606 
z
" transform="scale(0.015625)"/>
       </defs>
       <use xlink:href="#TimesNewRomanPSMT-32"/>
       <use xlink:href="#TimesNewRomanPSMT-2e" x="50"/>
       <use xlink:href="#TimesNewRomanPSMT-35" x="75"/>
      </g>
     </g>
    </g>
    <g id="ytick_2">
     <g id="line2d_23">
      <path d="M 51.942188 256.12683 
L 849.378438 256.12683 
" clip-path="url(#p195e0729af)" style="fill: none; stroke: #b0b0b0; stroke-width: 0.8; stroke-linecap: square"/>
     </g>
     <g id="line2d_24">
      <g>
       <use xlink:href="#m5d3ad7fc0f" x="51.942188" y="256.12683" style="stroke: #000000; stroke-width: 0.8"/>
      </g>
     </g>
     <g id="text_13">
      <!-- 5.0 -->
      <g transform="translate(29.942188 260.29308) scale(0.12 -0.12)">
       <use xlink:href="#TimesNewRomanPSMT-35"/>
       <use xlink:href="#TimesNewRomanPSMT-2e" x="50"/>
       <use xlink:href="#TimesNewRomanPSMT-30" x="75"/>
      </g>
     </g>
    </g>
    <g id="ytick_3">
     <g id="line2d_25">
      <path d="M 51.942188 219.566566 
L 849.378438 219.566566 
" clip-path="url(#p195e0729af)" style="fill: none; stroke: #b0b0b0; stroke-width: 0.8; stroke-linecap: square"/>
     </g>
     <g id="line2d_26">
      <g>
       <use xlink:href="#m5d3ad7fc0f" x="51.942188" y="219.566566" style="stroke: #000000; stroke-width: 0.8"/>
      </g>
     </g>
     <g id="text_14">
      <!-- 7.5 -->
      <g transform="translate(29.942188 223.732816) scale(0.12 -0.12)">
       <defs>
        <path id="TimesNewRomanPSMT-37" d="M 644 4238 
L 2916 4238 
L 2916 4119 
L 1503 -88 
L 1153 -88 
L 2419 3728 
L 1253 3728 
Q 900 3728 750 3644 
Q 488 3500 328 3200 
L 238 3234 
L 644 4238 
z
" transform="scale(0.015625)"/>
       </defs>
       <use xlink:href="#TimesNewRomanPSMT-37"/>
       <use xlink:href="#TimesNewRomanPSMT-2e" x="50"/>
       <use xlink:href="#TimesNewRomanPSMT-35" x="75"/>
      </g>
     </g>
    </g>
    <g id="ytick_4">
     <g id="line2d_27">
      <path d="M 51.942188 183.006302 
L 849.378438 183.006302 
" clip-path="url(#p195e0729af)" style="fill: none; stroke: #b0b0b0; stroke-width: 0.8; stroke-linecap: square"/>
     </g>
     <g id="line2d_28">
      <g>
       <use xlink:href="#m5d3ad7fc0f" x="51.942188" y="183.006302" style="stroke: #000000; stroke-width: 0.8"/>
      </g>
     </g>
     <g id="text_15">
      <!-- 10.0 -->
      <g transform="translate(23.942188 187.172552) scale(0.12 -0.12)">
       <use xlink:href="#TimesNewRomanPSMT-31"/>
       <use xlink:href="#TimesNewRomanPSMT-30" x="50"/>
       <use xlink:href="#TimesNewRomanPSMT-2e" x="100"/>
       <use xlink:href="#TimesNewRomanPSMT-30" x="125"/>
      </g>
     </g>
    </g>
    <g id="ytick_5">
     <g id="line2d_29">
      <path d="M 51.942188 146.446039 
L 849.378438 146.446039 
" clip-path="url(#p195e0729af)" style="fill: none; stroke: #b0b0b0; stroke-width: 0.8; stroke-linecap: square"/>
     </g>
     <g id="line2d_30">
      <g>
       <use xlink:href="#m5d3ad7fc0f" x="51.942188" y="146.446039" style="stroke: #000000; stroke-width: 0.8"/>
      </g>
     </g>
     <g id="text_16">
      <!-- 12.5 -->
      <g transform="translate(23.942188 150.612289) scale(0.12 -0.12)">
       <use xlink:href="#TimesNewRomanPSMT-31"/>
       <use xlink:href="#TimesNewRomanPSMT-32" x="50"/>
       <use xlink:href="#TimesNewRomanPSMT-2e" x="100"/>
       <use xlink:href="#TimesNewRomanPSMT-35" x="125"/>
      </g>
     </g>
    </g>
    <g id="ytick_6">
     <g id="line2d_31">
      <path d="M 51.942188 109.885775 
L 849.378438 109.885775 
" clip-path="url(#p195e0729af)" style="fill: none; stroke: #b0b0b0; stroke-width: 0.8; stroke-linecap: square"/>
     </g>
     <g id="line2d_32">
      <g>
       <use xlink:href="#m5d3ad7fc0f" x="51.942188" y="109.885775" style="stroke: #000000; stroke-width: 0.8"/>
      </g>
     </g>
     <g id="text_17">
      <!-- 15.0 -->
      <g transform="translate(23.942188 114.052025) scale(0.12 -0.12)">
       <use xlink:href="#TimesNewRomanPSMT-31"/>
       <use xlink:href="#TimesNewRomanPSMT-35" x="50"/>
       <use xlink:href="#TimesNewRomanPSMT-2e" x="100"/>
       <use xlink:href="#TimesNewRomanPSMT-30" x="125"/>
      </g>
     </g>
    </g>
    <g id="ytick_7">
     <g id="line2d_33">
      <path d="M 51.942188 73.325512 
L 849.378438 73.325512 
" clip-path="url(#p195e0729af)" style="fill: none; stroke: #b0b0b0; stroke-width: 0.8; stroke-linecap: square"/>
     </g>
     <g id="line2d_34">
      <g>
       <use xlink:href="#m5d3ad7fc0f" x="51.942188" y="73.325512" style="stroke: #000000; stroke-width: 0.8"/>
      </g>
     </g>
     <g id="text_18">
      <!-- 17.5 -->
      <g transform="translate(23.942188 77.491762) scale(0.12 -0.12)">
       <use xlink:href="#TimesNewRomanPSMT-31"/>
       <use xlink:href="#TimesNewRomanPSMT-37" x="50"/>
       <use xlink:href="#TimesNewRomanPSMT-2e" x="100"/>
       <use xlink:href="#TimesNewRomanPSMT-35" x="125"/>
      </g>
     </g>
    </g>
    <g id="ytick_8">
     <g id="line2d_35">
      <path d="M 51.942188 36.765248 
L 849.378438 36.765248 
" clip-path="url(#p195e0729af)" style="fill: none; stroke: #b0b0b0; stroke-width: 0.8; stroke-linecap: square"/>
     </g>
     <g id="line2d_36">
      <g>
       <use xlink:href="#m5d3ad7fc0f" x="51.942188" y="36.765248" style="stroke: #000000; stroke-width: 0.8"/>
      </g>
     </g>
     <g id="text_19">
      <!-- 20.0 -->
      <g transform="translate(23.942188 40.931498) scale(0.12 -0.12)">
       <use xlink:href="#TimesNewRomanPSMT-32"/>
       <use xlink:href="#TimesNewRomanPSMT-30" x="50"/>
       <use xlink:href="#TimesNewRomanPSMT-2e" x="100"/>
       <use xlink:href="#TimesNewRomanPSMT-30" x="125"/>
      </g>
     </g>
    </g>
    <g id="text_20">
     <!-- Voltage (V) -->
     <g transform="translate(16.92125 209.435625) rotate(-90) scale(0.14 -0.14)">
      <defs>
       <path id="TimesNewRomanPSMT-56" d="M 4544 4238 
L 4544 4122 
Q 4319 4081 4203 3978 
Q 4038 3825 3909 3509 
L 2431 -97 
L 2316 -97 
L 728 3556 
Q 606 3838 556 3900 
Q 478 3997 364 4051 
Q 250 4106 56 4122 
L 56 4238 
L 1788 4238 
L 1788 4122 
Q 1494 4094 1406 4022 
Q 1319 3950 1319 3838 
Q 1319 3681 1463 3350 
L 2541 866 
L 3541 3319 
Q 3688 3681 3688 3822 
Q 3688 3913 3597 3995 
Q 3506 4078 3291 4113 
Q 3275 4116 3238 4122 
L 3238 4238 
L 4544 4238 
z
" transform="scale(0.015625)"/>
       <path id="TimesNewRomanPSMT-6f" d="M 1600 2947 
Q 2250 2947 2644 2453 
Q 2978 2031 2978 1484 
Q 2978 1100 2793 706 
Q 2609 313 2286 112 
Q 1963 -88 1566 -88 
Q 919 -88 538 428 
Q 216 863 216 1403 
Q 216 1797 411 2186 
Q 606 2575 925 2761 
Q 1244 2947 1600 2947 
z
M 1503 2744 
Q 1338 2744 1170 2645 
Q 1003 2547 900 2300 
Q 797 2053 797 1666 
Q 797 1041 1045 587 
Q 1294 134 1700 134 
Q 2003 134 2200 384 
Q 2397 634 2397 1244 
Q 2397 2006 2069 2444 
Q 1847 2744 1503 2744 
z
" transform="scale(0.015625)"/>
       <path id="TimesNewRomanPSMT-6c" d="M 1184 4444 
L 1184 647 
Q 1184 378 1223 290 
Q 1263 203 1344 158 
Q 1425 113 1647 113 
L 1647 0 
L 244 0 
L 244 113 
Q 441 113 512 153 
Q 584 194 625 287 
Q 666 381 666 647 
L 666 3247 
Q 666 3731 644 3842 
Q 622 3953 573 3993 
Q 525 4034 450 4034 
Q 369 4034 244 3984 
L 191 4094 
L 1044 4444 
L 1184 4444 
z
" transform="scale(0.015625)"/>
       <path id="TimesNewRomanPSMT-61" d="M 1822 413 
Q 1381 72 1269 19 
Q 1100 -59 909 -59 
Q 613 -59 420 144 
Q 228 347 228 678 
Q 228 888 322 1041 
Q 450 1253 767 1440 
Q 1084 1628 1822 1897 
L 1822 2009 
Q 1822 2438 1686 2597 
Q 1550 2756 1291 2756 
Q 1094 2756 978 2650 
Q 859 2544 859 2406 
L 866 2225 
Q 866 2081 792 2003 
Q 719 1925 600 1925 
Q 484 1925 411 2006 
Q 338 2088 338 2228 
Q 338 2497 613 2722 
Q 888 2947 1384 2947 
Q 1766 2947 2009 2819 
Q 2194 2722 2281 2516 
Q 2338 2381 2338 1966 
L 2338 994 
Q 2338 584 2353 492 
Q 2369 400 2405 369 
Q 2441 338 2488 338 
Q 2538 338 2575 359 
Q 2641 400 2828 588 
L 2828 413 
Q 2478 -56 2159 -56 
Q 2006 -56 1915 50 
Q 1825 156 1822 413 
z
M 1822 616 
L 1822 1706 
Q 1350 1519 1213 1441 
Q 966 1303 859 1153 
Q 753 1003 753 825 
Q 753 600 887 451 
Q 1022 303 1197 303 
Q 1434 303 1822 616 
z
" transform="scale(0.015625)"/>
       <path id="TimesNewRomanPSMT-67" d="M 966 1044 
Q 703 1172 562 1401 
Q 422 1631 422 1909 
Q 422 2334 742 2640 
Q 1063 2947 1563 2947 
Q 1972 2947 2272 2747 
L 2878 2747 
Q 3013 2747 3034 2739 
Q 3056 2731 3066 2713 
Q 3084 2684 3084 2613 
Q 3084 2531 3069 2500 
Q 3059 2484 3036 2475 
Q 3013 2466 2878 2466 
L 2506 2466 
Q 2681 2241 2681 1891 
Q 2681 1491 2375 1206 
Q 2069 922 1553 922 
Q 1341 922 1119 984 
Q 981 866 932 777 
Q 884 688 884 625 
Q 884 572 936 522 
Q 988 472 1138 450 
Q 1225 438 1575 428 
Q 2219 413 2409 384 
Q 2700 344 2873 169 
Q 3047 -6 3047 -263 
Q 3047 -616 2716 -925 
Q 2228 -1381 1444 -1381 
Q 841 -1381 425 -1109 
Q 191 -953 191 -784 
Q 191 -709 225 -634 
Q 278 -519 444 -313 
Q 466 -284 763 25 
Q 600 122 533 198 
Q 466 275 466 372 
Q 466 481 555 628 
Q 644 775 966 1044 
z
M 1509 2797 
Q 1278 2797 1122 2612 
Q 966 2428 966 2047 
Q 966 1553 1178 1281 
Q 1341 1075 1591 1075 
Q 1828 1075 1981 1253 
Q 2134 1431 2134 1813 
Q 2134 2309 1919 2591 
Q 1759 2797 1509 2797 
z
M 934 0 
Q 788 -159 713 -296 
Q 638 -434 638 -550 
Q 638 -700 819 -813 
Q 1131 -1006 1722 -1006 
Q 2284 -1006 2551 -807 
Q 2819 -609 2819 -384 
Q 2819 -222 2659 -153 
Q 2497 -84 2016 -72 
Q 1313 -53 934 0 
z
" transform="scale(0.015625)"/>
       <path id="TimesNewRomanPSMT-20" transform="scale(0.015625)"/>
       <path id="TimesNewRomanPSMT-28" d="M 1988 -1253 
L 1988 -1369 
Q 1516 -1131 1200 -813 
Q 750 -359 506 256 
Q 263 872 263 1534 
Q 263 2503 741 3301 
Q 1219 4100 1988 4444 
L 1988 4313 
Q 1603 4100 1356 3731 
Q 1109 3363 987 2797 
Q 866 2231 866 1616 
Q 866 947 969 400 
Q 1050 -31 1165 -292 
Q 1281 -553 1476 -793 
Q 1672 -1034 1988 -1253 
z
" transform="scale(0.015625)"/>
       <path id="TimesNewRomanPSMT-29" d="M 144 4313 
L 144 4444 
Q 619 4209 934 3891 
Q 1381 3434 1625 2820 
Q 1869 2206 1869 1541 
Q 1869 572 1392 -226 
Q 916 -1025 144 -1369 
L 144 -1253 
Q 528 -1038 776 -670 
Q 1025 -303 1145 264 
Q 1266 831 1266 1447 
Q 1266 2113 1163 2663 
Q 1084 3094 967 3353 
Q 850 3613 656 3853 
Q 463 4094 144 4313 
z
" transform="scale(0.015625)"/>
      </defs>
      <use xlink:href="#TimesNewRomanPSMT-56"/>
      <use xlink:href="#TimesNewRomanPSMT-6f" x="59.341797"/>
      <use xlink:href="#TimesNewRomanPSMT-6c" x="109.341797"/>
      <use xlink:href="#TimesNewRomanPSMT-74" x="137.125"/>
      <use xlink:href="#TimesNewRomanPSMT-61" x="164.908203"/>
      <use xlink:href="#TimesNewRomanPSMT-67" x="209.292969"/>
      <use xlink:href="#TimesNewRomanPSMT-65" x="259.292969"/>
      <use xlink:href="#TimesNewRomanPSMT-20" x="303.677734"/>
      <use xlink:href="#TimesNewRomanPSMT-28" x="328.677734"/>
      <use xlink:href="#TimesNewRomanPSMT-56" x="361.978516"/>
      <use xlink:href="#TimesNewRomanPSMT-29" x="434.195312"/>
     </g>
    </g>
   </g>
   <g id="line2d_37">
    <path d="M 67.2775 264.7843 
L 82.612813 271.745374 
L 97.948125 68.353316 
L 113.283438 192.087872 
L 128.61875 264.608811 
L 143.954063 240.756895 
L 159.289375 278.077612 
L 174.624687 277.989867 
L 189.96 227.02486 
L 205.295313 65.077516 
L 220.630625 285.521281 
L 235.965937 255.600362 
L 251.30125 262.385947 
L 266.636563 258.920034 
L 281.971875 253.494491 
L 297.307187 155.278998 
L 312.6425 206.463367 
L 327.977812 216.188398 
L 343.313125 197.396422 
L 358.648438 219.668935 
L 373.98375 181.383027 
L 389.319063 123.998037 
L 404.654375 262.883166 
L 419.989688 175.723498 
L 435.325 270.765559 
L 450.660312 271.774622 
L 465.995625 264.85742 
L 481.330938 274.041359 
L 496.66625 232.932998 
L 512.001563 274.01211 
L 527.336875 63.424992 
L 542.672188 42.307784 
L 558.0075 260.557933 
L 573.342813 45.905314 
L 588.678125 266.275959 
L 604.013438 239.133619 
L 619.34875 183.152543 
L 634.684063 282.932815 
L 650.019375 274.889557 
L 665.354688 274.421585 
L 680.69 222.6815 
L 696.025313 93.433657 
L 711.360625 197.791273 
L 726.695938 294.588227 
L 742.03125 311.113466 
L 757.366563 304.766604 
L 772.701875 240.230427 
L 788.037188 260.265451 
L 803.3725 243.272241 
L 818.707813 217.62156 
" clip-path="url(#p195e0729af)" style="fill: none; stroke: #0000ff; stroke-width: 1.5; stroke-linecap: square"/>
    <defs>
     <path id="mac99c63f55" d="M 0 3 
C 0.795609 3 1.55874 2.683901 2.12132 2.12132 
C 2.683901 1.55874 3 0.795609 3 0 
C 3 -0.795609 2.683901 -1.55874 2.12132 -2.12132 
C 1.55874 -2.683901 0.795609 -3 0 -3 
C -0.795609 -3 -1.55874 -2.683901 -2.12132 -2.12132 
C -2.683901 -1.55874 -3 -0.795609 -3 0 
C -3 0.795609 -2.683901 1.55874 -2.12132 2.12132 
C -1.55874 2.683901 -0.795609 3 0 3 
z
" style="stroke: #0000ff"/>
    </defs>
    <g clip-path="url(#p195e0729af)">
     <use xlink:href="#mac99c63f55" x="67.2775" y="264.7843" style="fill: #0000ff; stroke: #0000ff"/>
     <use xlink:href="#mac99c63f55" x="82.612813" y="271.745374" style="fill: #0000ff; stroke: #0000ff"/>
     <use xlink:href="#mac99c63f55" x="97.948125" y="68.353316" style="fill: #0000ff; stroke: #0000ff"/>
     <use xlink:href="#mac99c63f55" x="113.283438" y="192.087872" style="fill: #0000ff; stroke: #0000ff"/>
     <use xlink:href="#mac99c63f55" x="128.61875" y="264.608811" style="fill: #0000ff; stroke: #0000ff"/>
     <use xlink:href="#mac99c63f55" x="143.954063" y="240.756895" style="fill: #0000ff; stroke: #0000ff"/>
     <use xlink:href="#mac99c63f55" x="159.289375" y="278.077612" style="fill: #0000ff; stroke: #0000ff"/>
     <use xlink:href="#mac99c63f55" x="174.624687" y="277.989867" style="fill: #0000ff; stroke: #0000ff"/>
     <use xlink:href="#mac99c63f55" x="189.96" y="227.02486" style="fill: #0000ff; stroke: #0000ff"/>
     <use xlink:href="#mac99c63f55" x="205.295313" y="65.077516" style="fill: #0000ff; stroke: #0000ff"/>
     <use xlink:href="#mac99c63f55" x="220.630625" y="285.521281" style="fill: #0000ff; stroke: #0000ff"/>
     <use xlink:href="#mac99c63f55" x="235.965937" y="255.600362" style="fill: #0000ff; stroke: #0000ff"/>
     <use xlink:href="#mac99c63f55" x="251.30125" y="262.385947" style="fill: #0000ff; stroke: #0000ff"/>
     <use xlink:href="#mac99c63f55" x="266.636563" y="258.920034" style="fill: #0000ff; stroke: #0000ff"/>
     <use xlink:href="#mac99c63f55" x="281.971875" y="253.494491" style="fill: #0000ff; stroke: #0000ff"/>
     <use xlink:href="#mac99c63f55" x="297.307187" y="155.278998" style="fill: #0000ff; stroke: #0000ff"/>
     <use xlink:href="#mac99c63f55" x="312.6425" y="206.463367" style="fill: #0000ff; stroke: #0000ff"/>
     <use xlink:href="#mac99c63f55" x="327.977812" y="216.188398" style="fill: #0000ff; stroke: #0000ff"/>
     <use xlink:href="#mac99c63f55" x="343.313125" y="197.396422" style="fill: #0000ff; stroke: #0000ff"/>
     <use xlink:href="#mac99c63f55" x="358.648438" y="219.668935" style="fill: #0000ff; stroke: #0000ff"/>
     <use xlink:href="#mac99c63f55" x="373.98375" y="181.383027" style="fill: #0000ff; stroke: #0000ff"/>
     <use xlink:href="#mac99c63f55" x="389.319063" y="123.998037" style="fill: #0000ff; stroke: #0000ff"/>
     <use xlink:href="#mac99c63f55" x="404.654375" y="262.883166" style="fill: #0000ff; stroke: #0000ff"/>
     <use xlink:href="#mac99c63f55" x="419.989688" y="175.723498" style="fill: #0000ff; stroke: #0000ff"/>
     <use xlink:href="#mac99c63f55" x="435.325" y="270.765559" style="fill: #0000ff; stroke: #0000ff"/>
     <use xlink:href="#mac99c63f55" x="450.660312" y="271.774622" style="fill: #0000ff; stroke: #0000ff"/>
     <use xlink:href="#mac99c63f55" x="465.995625" y="264.85742" style="fill: #0000ff; stroke: #0000ff"/>
     <use xlink:href="#mac99c63f55" x="481.330938" y="274.041359" style="fill: #0000ff; stroke: #0000ff"/>
     <use xlink:href="#mac99c63f55" x="496.66625" y="232.932998" style="fill: #0000ff; stroke: #0000ff"/>
     <use xlink:href="#mac99c63f55" x="512.001563" y="274.01211" style="fill: #0000ff; stroke: #0000ff"/>
     <use xlink:href="#mac99c63f55" x="527.336875" y="63.424992" style="fill: #0000ff; stroke: #0000ff"/>
     <use xlink:href="#mac99c63f55" x="542.672188" y="42.307784" style="fill: #0000ff; stroke: #0000ff"/>
     <use xlink:href="#mac99c63f55" x="558.0075" y="260.557933" style="fill: #0000ff; stroke: #0000ff"/>
     <use xlink:href="#mac99c63f55" x="573.342813" y="45.905314" style="fill: #0000ff; stroke: #0000ff"/>
     <use xlink:href="#mac99c63f55" x="588.678125" y="266.275959" style="fill: #0000ff; stroke: #0000ff"/>
     <use xlink:href="#mac99c63f55" x="604.013438" y="239.133619" style="fill: #0000ff; stroke: #0000ff"/>
     <use xlink:href="#mac99c63f55" x="619.34875" y="183.152543" style="fill: #0000ff; stroke: #0000ff"/>
     <use xlink:href="#mac99c63f55" x="634.684063" y="282.932815" style="fill: #0000ff; stroke: #0000ff"/>
     <use xlink:href="#mac99c63f55" x="650.019375" y="274.889557" style="fill: #0000ff; stroke: #0000ff"/>
     <use xlink:href="#mac99c63f55" x="665.354688" y="274.421585" style="fill: #0000ff; stroke: #0000ff"/>
     <use xlink:href="#mac99c63f55" x="680.69" y="222.6815" style="fill: #0000ff; stroke: #0000ff"/>
     <use xlink:href="#mac99c63f55" x="696.025313" y="93.433657" style="fill: #0000ff; stroke: #0000ff"/>
     <use xlink:href="#mac99c63f55" x="711.360625" y="197.791273" style="fill: #0000ff; stroke: #0000ff"/>
     <use xlink:href="#mac99c63f55" x="726.695938" y="294.588227" style="fill: #0000ff; stroke: #0000ff"/>
     <use xlink:href="#mac99c63f55" x="742.03125" y="311.113466" style="fill: #0000ff; stroke: #0000ff"/>
     <use xlink:href="#mac99c63f55" x="757.366563" y="304.766604" style="fill: #0000ff; stroke: #0000ff"/>
     <use xlink:href="#mac99c63f55" x="772.701875" y="240.230427" style="fill: #0000ff; stroke: #0000ff"/>
     <use xlink:href="#mac99c63f55" x="788.037188" y="260.265451" style="fill: #0000ff; stroke: #0000ff"/>
     <use xlink:href="#mac99c63f55" x="803.3725" y="243.272241" style="fill: #0000ff; stroke: #0000ff"/>
     <use xlink:href="#mac99c63f55" x="818.707813" y="217.62156" style="fill: #0000ff; stroke: #0000ff"/>
    </g>
   </g>
   <g id="patch_3">
    <path d="M 51.942188 324.55375 
L 51.942188 28.8675 
" style="fill: none; stroke: #000000; stroke-width: 0.8; stroke-linejoin: miter; stroke-linecap: square"/>
   </g>
   <g id="patch_4">
    <path d="M 849.378438 324.55375 
L 849.378438 28.8675 
" style="fill: none; stroke: #000000; stroke-width: 0.8; stroke-linejoin: miter; stroke-linecap: square"/>
   </g>
   <g id="patch_5">
    <path d="M 51.942188 324.55375 
L 849.378438 324.55375 
" style="fill: none; stroke: #000000; stroke-width: 0.8; stroke-linejoin: miter; stroke-linecap: square"/>
   </g>
   <g id="patch_6">
    <path d="M 51.942188 28.8675 
L 849.378438 28.8675 
" style="fill: none; stroke: #000000; stroke-width: 0.8; stroke-linejoin: miter; stroke-linecap: square"/>
   </g>
   <g id="legend_1">
    <g id="patch_7">
     <path d="M 766.135938 55.456875 
L 840.978438 55.456875 
Q 843.378438 55.456875 843.378438 53.056875 
L 843.378438 37.2675 
Q 843.378438 34.8675 840.978438 34.8675 
L 766.135938 34.8675 
Q 763.735938 34.8675 763.735938 37.2675 
L 763.735938 53.056875 
Q 763.735938 55.456875 766.135938 55.456875 
z
" style="fill: #ffffff; opacity: 0.8; stroke: #cccccc; stroke-linejoin: miter"/>
    </g>
    <g id="line2d_38">
     <path d="M 768.535938 43.8675 
L 780.535938 43.8675 
L 792.535938 43.8675 
" style="fill: none; stroke: #0000ff; stroke-width: 1.5; stroke-linecap: square"/>
     <g>
      <use xlink:href="#mac99c63f55" x="780.535938" y="43.8675" style="fill: #0000ff; stroke: #0000ff"/>
     </g>
    </g>
    <g id="text_21">
     <!-- Voltage -->
     <g transform="translate(802.135938 48.0675) scale(0.12 -0.12)">
      <use xlink:href="#TimesNewRomanPSMT-56"/>
      <use xlink:href="#TimesNewRomanPSMT-6f" x="59.341797"/>
      <use xlink:href="#TimesNewRomanPSMT-6c" x="109.341797"/>
      <use xlink:href="#TimesNewRomanPSMT-74" x="137.125"/>
      <use xlink:href="#TimesNewRomanPSMT-61" x="164.908203"/>
      <use xlink:href="#TimesNewRomanPSMT-67" x="209.292969"/>
      <use xlink:href="#TimesNewRomanPSMT-65" x="259.292969"/>
     </g>
    </g>
   </g>
  </g>
  <g id="axes_2">
   <g id="patch_8">
    <path d="M 51.942188 666.52 
L 849.378438 666.52 
L 849.378438 370.83375 
L 51.942188 370.83375 
z
" style="fill: #ffffff"/>
   </g>
   <g id="matplotlib.axis_3">
    <g id="xtick_11">
     <g id="line2d_39">
      <path d="M 128.61875 666.52 
L 128.61875 370.83375 
" clip-path="url(#pf07b37b905)" style="fill: none; stroke: #b0b0b0; stroke-width: 0.8; stroke-linecap: square"/>
     </g>
     <g id="line2d_40">
      <g>
       <use xlink:href="#m886a3bd509" x="128.61875" y="666.52" style="stroke: #000000; stroke-width: 0.8"/>
      </g>
     </g>
     <g id="text_22">
      <!-- 5 -->
      <g transform="translate(125.61875 681.8525) scale(0.12 -0.12)">
       <use xlink:href="#TimesNewRomanPSMT-35"/>
      </g>
     </g>
    </g>
    <g id="xtick_12">
     <g id="line2d_41">
      <path d="M 205.295313 666.52 
L 205.295313 370.83375 
" clip-path="url(#pf07b37b905)" style="fill: none; stroke: #b0b0b0; stroke-width: 0.8; stroke-linecap: square"/>
     </g>
     <g id="line2d_42">
      <g>
       <use xlink:href="#m886a3bd509" x="205.295313" y="666.52" style="stroke: #000000; stroke-width: 0.8"/>
      </g>
     </g>
     <g id="text_23">
      <!-- 10 -->
      <g transform="translate(199.295313 681.8525) scale(0.12 -0.12)">
       <use xlink:href="#TimesNewRomanPSMT-31"/>
       <use xlink:href="#TimesNewRomanPSMT-30" x="50"/>
      </g>
     </g>
    </g>
    <g id="xtick_13">
     <g id="line2d_43">
      <path d="M 281.971875 666.52 
L 281.971875 370.83375 
" clip-path="url(#pf07b37b905)" style="fill: none; stroke: #b0b0b0; stroke-width: 0.8; stroke-linecap: square"/>
     </g>
     <g id="line2d_44">
      <g>
       <use xlink:href="#m886a3bd509" x="281.971875" y="666.52" style="stroke: #000000; stroke-width: 0.8"/>
      </g>
     </g>
     <g id="text_24">
      <!-- 15 -->
      <g transform="translate(275.971875 681.8525) scale(0.12 -0.12)">
       <use xlink:href="#TimesNewRomanPSMT-31"/>
       <use xlink:href="#TimesNewRomanPSMT-35" x="50"/>
      </g>
     </g>
    </g>
    <g id="xtick_14">
     <g id="line2d_45">
      <path d="M 358.648438 666.52 
L 358.648438 370.83375 
" clip-path="url(#pf07b37b905)" style="fill: none; stroke: #b0b0b0; stroke-width: 0.8; stroke-linecap: square"/>
     </g>
     <g id="line2d_46">
      <g>
       <use xlink:href="#m886a3bd509" x="358.648438" y="666.52" style="stroke: #000000; stroke-width: 0.8"/>
      </g>
     </g>
     <g id="text_25">
      <!-- 20 -->
      <g transform="translate(352.648438 681.8525) scale(0.12 -0.12)">
       <use xlink:href="#TimesNewRomanPSMT-32"/>
       <use xlink:href="#TimesNewRomanPSMT-30" x="50"/>
      </g>
     </g>
    </g>
    <g id="xtick_15">
     <g id="line2d_47">
      <path d="M 435.325 666.52 
L 435.325 370.83375 
" clip-path="url(#pf07b37b905)" style="fill: none; stroke: #b0b0b0; stroke-width: 0.8; stroke-linecap: square"/>
     </g>
     <g id="line2d_48">
      <g>
       <use xlink:href="#m886a3bd509" x="435.325" y="666.52" style="stroke: #000000; stroke-width: 0.8"/>
      </g>
     </g>
     <g id="text_26">
      <!-- 25 -->
      <g transform="translate(429.325 681.8525) scale(0.12 -0.12)">
       <use xlink:href="#TimesNewRomanPSMT-32"/>
       <use xlink:href="#TimesNewRomanPSMT-35" x="50"/>
      </g>
     </g>
    </g>
    <g id="xtick_16">
     <g id="line2d_49">
      <path d="M 512.001563 666.52 
L 512.001563 370.83375 
" clip-path="url(#pf07b37b905)" style="fill: none; stroke: #b0b0b0; stroke-width: 0.8; stroke-linecap: square"/>
     </g>
     <g id="line2d_50">
      <g>
       <use xlink:href="#m886a3bd509" x="512.001563" y="666.52" style="stroke: #000000; stroke-width: 0.8"/>
      </g>
     </g>
     <g id="text_27">
      <!-- 30 -->
      <g transform="translate(506.001563 681.8525) scale(0.12 -0.12)">
       <use xlink:href="#TimesNewRomanPSMT-33"/>
       <use xlink:href="#TimesNewRomanPSMT-30" x="50"/>
      </g>
     </g>
    </g>
    <g id="xtick_17">
     <g id="line2d_51">
      <path d="M 588.678125 666.52 
L 588.678125 370.83375 
" clip-path="url(#pf07b37b905)" style="fill: none; stroke: #b0b0b0; stroke-width: 0.8; stroke-linecap: square"/>
     </g>
     <g id="line2d_52">
      <g>
       <use xlink:href="#m886a3bd509" x="588.678125" y="666.52" style="stroke: #000000; stroke-width: 0.8"/>
      </g>
     </g>
     <g id="text_28">
      <!-- 35 -->
      <g transform="translate(582.678125 681.8525) scale(0.12 -0.12)">
       <use xlink:href="#TimesNewRomanPSMT-33"/>
       <use xlink:href="#TimesNewRomanPSMT-35" x="50"/>
      </g>
     </g>
    </g>
    <g id="xtick_18">
     <g id="line2d_53">
      <path d="M 665.354688 666.52 
L 665.354688 370.83375 
" clip-path="url(#pf07b37b905)" style="fill: none; stroke: #b0b0b0; stroke-width: 0.8; stroke-linecap: square"/>
     </g>
     <g id="line2d_54">
      <g>
       <use xlink:href="#m886a3bd509" x="665.354688" y="666.52" style="stroke: #000000; stroke-width: 0.8"/>
      </g>
     </g>
     <g id="text_29">
      <!-- 40 -->
      <g transform="translate(659.354688 681.8525) scale(0.12 -0.12)">
       <use xlink:href="#TimesNewRomanPSMT-34"/>
       <use xlink:href="#TimesNewRomanPSMT-30" x="50"/>
      </g>
     </g>
    </g>
    <g id="xtick_19">
     <g id="line2d_55">
      <path d="M 742.03125 666.52 
L 742.03125 370.83375 
" clip-path="url(#pf07b37b905)" style="fill: none; stroke: #b0b0b0; stroke-width: 0.8; stroke-linecap: square"/>
     </g>
     <g id="line2d_56">
      <g>
       <use xlink:href="#m886a3bd509" x="742.03125" y="666.52" style="stroke: #000000; stroke-width: 0.8"/>
      </g>
     </g>
     <g id="text_30">
      <!-- 45 -->
      <g transform="translate(736.03125 681.8525) scale(0.12 -0.12)">
       <use xlink:href="#TimesNewRomanPSMT-34"/>
       <use xlink:href="#TimesNewRomanPSMT-35" x="50"/>
      </g>
     </g>
    </g>
    <g id="xtick_20">
     <g id="line2d_57">
      <path d="M 818.707813 666.52 
L 818.707813 370.83375 
" clip-path="url(#pf07b37b905)" style="fill: none; stroke: #b0b0b0; stroke-width: 0.8; stroke-linecap: square"/>
     </g>
     <g id="line2d_58">
      <g>
       <use xlink:href="#m886a3bd509" x="818.707813" y="666.52" style="stroke: #000000; stroke-width: 0.8"/>
      </g>
     </g>
     <g id="text_31">
      <!-- 50 -->
      <g transform="translate(812.707813 681.8525) scale(0.12 -0.12)">
       <use xlink:href="#TimesNewRomanPSMT-35"/>
       <use xlink:href="#TimesNewRomanPSMT-30" x="50"/>
      </g>
     </g>
    </g>
    <g id="text_32">
     <!-- Step -->
     <g transform="translate(438.215625 698.140625) scale(0.14 -0.14)">
      <use xlink:href="#TimesNewRomanPSMT-53"/>
      <use xlink:href="#TimesNewRomanPSMT-74" x="55.615234"/>
      <use xlink:href="#TimesNewRomanPSMT-65" x="83.398438"/>
      <use xlink:href="#TimesNewRomanPSMT-70" x="127.783203"/>
     </g>
    </g>
   </g>
   <g id="matplotlib.axis_4">
    <g id="ytick_9">
     <g id="line2d_59">
      <path d="M 51.942188 610.029249 
L 849.378438 610.029249 
" clip-path="url(#pf07b37b905)" style="fill: none; stroke: #b0b0b0; stroke-width: 0.8; stroke-linecap: square"/>
     </g>
     <g id="line2d_60">
      <g>
       <use xlink:href="#m5d3ad7fc0f" x="51.942188" y="610.029249" style="stroke: #000000; stroke-width: 0.8"/>
      </g>
     </g>
     <g id="text_33">
      <!-- 0.5 -->
      <g transform="translate(29.942188 614.195499) scale(0.12 -0.12)">
       <use xlink:href="#TimesNewRomanPSMT-30"/>
       <use xlink:href="#TimesNewRomanPSMT-2e" x="50"/>
       <use xlink:href="#TimesNewRomanPSMT-35" x="75"/>
      </g>
     </g>
    </g>
    <g id="ytick_10">
     <g id="line2d_61">
      <path d="M 51.942188 553.453872 
L 849.378438 553.453872 
" clip-path="url(#pf07b37b905)" style="fill: none; stroke: #b0b0b0; stroke-width: 0.8; stroke-linecap: square"/>
     </g>
     <g id="line2d_62">
      <g>
       <use xlink:href="#m5d3ad7fc0f" x="51.942188" y="553.453872" style="stroke: #000000; stroke-width: 0.8"/>
      </g>
     </g>
     <g id="text_34">
      <!-- 1.0 -->
      <g transform="translate(29.942188 557.620122) scale(0.12 -0.12)">
       <use xlink:href="#TimesNewRomanPSMT-31"/>
       <use xlink:href="#TimesNewRomanPSMT-2e" x="50"/>
       <use xlink:href="#TimesNewRomanPSMT-30" x="75"/>
      </g>
     </g>
    </g>
    <g id="ytick_11">
     <g id="line2d_63">
      <path d="M 51.942188 496.878496 
L 849.378438 496.878496 
" clip-path="url(#pf07b37b905)" style="fill: none; stroke: #b0b0b0; stroke-width: 0.8; stroke-linecap: square"/>
     </g>
     <g id="line2d_64">
      <g>
       <use xlink:href="#m5d3ad7fc0f" x="51.942188" y="496.878496" style="stroke: #000000; stroke-width: 0.8"/>
      </g>
     </g>
     <g id="text_35">
      <!-- 1.5 -->
      <g transform="translate(29.942188 501.044746) scale(0.12 -0.12)">
       <use xlink:href="#TimesNewRomanPSMT-31"/>
       <use xlink:href="#TimesNewRomanPSMT-2e" x="50"/>
       <use xlink:href="#TimesNewRomanPSMT-35" x="75"/>
      </g>
     </g>
    </g>
    <g id="ytick_12">
     <g id="line2d_65">
      <path d="M 51.942188 440.303119 
L 849.378438 440.303119 
" clip-path="url(#pf07b37b905)" style="fill: none; stroke: #b0b0b0; stroke-width: 0.8; stroke-linecap: square"/>
     </g>
     <g id="line2d_66">
      <g>
       <use xlink:href="#m5d3ad7fc0f" x="51.942188" y="440.303119" style="stroke: #000000; stroke-width: 0.8"/>
      </g>
     </g>
     <g id="text_36">
      <!-- 2.0 -->
      <g transform="translate(29.942188 444.469369) scale(0.12 -0.12)">
       <use xlink:href="#TimesNewRomanPSMT-32"/>
       <use xlink:href="#TimesNewRomanPSMT-2e" x="50"/>
       <use xlink:href="#TimesNewRomanPSMT-30" x="75"/>
      </g>
     </g>
    </g>
    <g id="ytick_13">
     <g id="line2d_67">
      <path d="M 51.942188 383.727742 
L 849.378438 383.727742 
" clip-path="url(#pf07b37b905)" style="fill: none; stroke: #b0b0b0; stroke-width: 0.8; stroke-linecap: square"/>
     </g>
     <g id="line2d_68">
      <g>
       <use xlink:href="#m5d3ad7fc0f" x="51.942188" y="383.727742" style="stroke: #000000; stroke-width: 0.8"/>
      </g>
     </g>
     <g id="text_37">
      <!-- 2.5 -->
      <g transform="translate(29.942188 387.893992) scale(0.12 -0.12)">
       <use xlink:href="#TimesNewRomanPSMT-32"/>
       <use xlink:href="#TimesNewRomanPSMT-2e" x="50"/>
       <use xlink:href="#TimesNewRomanPSMT-35" x="75"/>
      </g>
     </g>
    </g>
    <g id="text_38">
     <!-- Displacement RMS (m) -->
     <g transform="translate(22.9475 585.5575) rotate(-90) scale(0.14 -0.14)">
      <defs>
       <path id="TimesNewRomanPSMT-44" d="M 109 0 
L 109 116 
L 269 116 
Q 538 116 650 288 
Q 719 391 719 750 
L 719 3488 
Q 719 3884 631 3984 
Q 509 4122 269 4122 
L 109 4122 
L 109 4238 
L 1834 4238 
Q 2784 4238 3279 4022 
Q 3775 3806 4076 3303 
Q 4378 2800 4378 2141 
Q 4378 1256 3841 663 
Q 3238 0 2003 0 
L 109 0 
z
M 1319 306 
Q 1716 219 1984 219 
Q 2709 219 3187 728 
Q 3666 1238 3666 2109 
Q 3666 2988 3187 3494 
Q 2709 4000 1959 4000 
Q 1678 4000 1319 3909 
L 1319 306 
z
" transform="scale(0.015625)"/>
       <path id="TimesNewRomanPSMT-69" d="M 928 4444 
Q 1059 4444 1151 4351 
Q 1244 4259 1244 4128 
Q 1244 3997 1151 3903 
Q 1059 3809 928 3809 
Q 797 3809 703 3903 
Q 609 3997 609 4128 
Q 609 4259 701 4351 
Q 794 4444 928 4444 
z
M 1188 2947 
L 1188 647 
Q 1188 378 1227 289 
Q 1266 200 1342 156 
Q 1419 113 1622 113 
L 1622 0 
L 231 0 
L 231 113 
Q 441 113 512 153 
Q 584 194 626 287 
Q 669 381 669 647 
L 669 1750 
Q 669 2216 641 2353 
Q 619 2453 572 2492 
Q 525 2531 444 2531 
Q 356 2531 231 2484 
L 188 2597 
L 1050 2947 
L 1188 2947 
z
" transform="scale(0.015625)"/>
       <path id="TimesNewRomanPSMT-73" d="M 2050 2947 
L 2050 1972 
L 1947 1972 
Q 1828 2431 1642 2597 
Q 1456 2763 1169 2763 
Q 950 2763 815 2647 
Q 681 2531 681 2391 
Q 681 2216 781 2091 
Q 878 1963 1175 1819 
L 1631 1597 
Q 2266 1288 2266 781 
Q 2266 391 1970 151 
Q 1675 -88 1309 -88 
Q 1047 -88 709 6 
Q 606 38 541 38 
Q 469 38 428 -44 
L 325 -44 
L 325 978 
L 428 978 
Q 516 541 762 319 
Q 1009 97 1316 97 
Q 1531 97 1667 223 
Q 1803 350 1803 528 
Q 1803 744 1651 891 
Q 1500 1038 1047 1263 
Q 594 1488 453 1669 
Q 313 1847 313 2119 
Q 313 2472 555 2709 
Q 797 2947 1181 2947 
Q 1350 2947 1591 2875 
Q 1750 2828 1803 2828 
Q 1853 2828 1881 2850 
Q 1909 2872 1947 2947 
L 2050 2947 
z
" transform="scale(0.015625)"/>
       <path id="TimesNewRomanPSMT-63" d="M 2631 1088 
Q 2516 522 2178 217 
Q 1841 -88 1431 -88 
Q 944 -88 581 321 
Q 219 731 219 1428 
Q 219 2103 620 2525 
Q 1022 2947 1584 2947 
Q 2006 2947 2278 2723 
Q 2550 2500 2550 2259 
Q 2550 2141 2473 2067 
Q 2397 1994 2259 1994 
Q 2075 1994 1981 2113 
Q 1928 2178 1911 2362 
Q 1894 2547 1784 2644 
Q 1675 2738 1481 2738 
Q 1169 2738 978 2506 
Q 725 2200 725 1697 
Q 725 1184 976 792 
Q 1228 400 1656 400 
Q 1963 400 2206 609 
Q 2378 753 2541 1131 
L 2631 1088 
z
" transform="scale(0.015625)"/>
       <path id="TimesNewRomanPSMT-6d" d="M 1050 2338 
Q 1363 2650 1419 2697 
Q 1559 2816 1721 2881 
Q 1884 2947 2044 2947 
Q 2313 2947 2506 2790 
Q 2700 2634 2766 2338 
Q 3088 2713 3309 2830 
Q 3531 2947 3766 2947 
Q 3994 2947 4170 2830 
Q 4347 2713 4450 2447 
Q 4519 2266 4519 1878 
L 4519 647 
Q 4519 378 4559 278 
Q 4591 209 4675 161 
Q 4759 113 4950 113 
L 4950 0 
L 3538 0 
L 3538 113 
L 3597 113 
Q 3781 113 3884 184 
Q 3956 234 3988 344 
Q 4000 397 4000 647 
L 4000 1878 
Q 4000 2228 3916 2372 
Q 3794 2572 3525 2572 
Q 3359 2572 3192 2489 
Q 3025 2406 2788 2181 
L 2781 2147 
L 2788 2013 
L 2788 647 
Q 2788 353 2820 281 
Q 2853 209 2943 161 
Q 3034 113 3253 113 
L 3253 0 
L 1806 0 
L 1806 113 
Q 2044 113 2133 169 
Q 2222 225 2256 338 
Q 2272 391 2272 647 
L 2272 1878 
Q 2272 2228 2169 2381 
Q 2031 2581 1784 2581 
Q 1616 2581 1450 2491 
Q 1191 2353 1050 2181 
L 1050 647 
Q 1050 366 1089 281 
Q 1128 197 1204 155 
Q 1281 113 1516 113 
L 1516 0 
L 100 0 
L 100 113 
Q 297 113 375 155 
Q 453 197 493 289 
Q 534 381 534 647 
L 534 1741 
Q 534 2213 506 2350 
Q 484 2453 437 2492 
Q 391 2531 309 2531 
Q 222 2531 100 2484 
L 53 2597 
L 916 2947 
L 1050 2947 
L 1050 2338 
z
" transform="scale(0.015625)"/>
       <path id="TimesNewRomanPSMT-6e" d="M 1034 2341 
Q 1538 2947 1994 2947 
Q 2228 2947 2397 2830 
Q 2566 2713 2666 2444 
Q 2734 2256 2734 1869 
L 2734 647 
Q 2734 375 2778 278 
Q 2813 200 2889 156 
Q 2966 113 3172 113 
L 3172 0 
L 1756 0 
L 1756 113 
L 1816 113 
Q 2016 113 2095 173 
Q 2175 234 2206 353 
Q 2219 400 2219 647 
L 2219 1819 
Q 2219 2209 2117 2386 
Q 2016 2563 1775 2563 
Q 1403 2563 1034 2156 
L 1034 647 
Q 1034 356 1069 288 
Q 1113 197 1189 155 
Q 1266 113 1500 113 
L 1500 0 
L 84 0 
L 84 113 
L 147 113 
Q 366 113 442 223 
Q 519 334 519 647 
L 519 1709 
Q 519 2225 495 2337 
Q 472 2450 423 2490 
Q 375 2531 294 2531 
Q 206 2531 84 2484 
L 38 2597 
L 900 2947 
L 1034 2947 
L 1034 2341 
z
" transform="scale(0.015625)"/>
       <path id="TimesNewRomanPSMT-52" d="M 4325 0 
L 3194 0 
L 1759 1981 
Q 1600 1975 1500 1975 
Q 1459 1975 1412 1976 
Q 1366 1978 1316 1981 
L 1316 750 
Q 1316 350 1403 253 
Q 1522 116 1759 116 
L 1925 116 
L 1925 0 
L 109 0 
L 109 116 
L 269 116 
Q 538 116 653 291 
Q 719 388 719 750 
L 719 3488 
Q 719 3888 631 3984 
Q 509 4122 269 4122 
L 109 4122 
L 109 4238 
L 1653 4238 
Q 2328 4238 2648 4139 
Q 2969 4041 3192 3777 
Q 3416 3513 3416 3147 
Q 3416 2756 3161 2468 
Q 2906 2181 2372 2063 
L 3247 847 
Q 3547 428 3762 290 
Q 3978 153 4325 116 
L 4325 0 
z
M 1316 2178 
Q 1375 2178 1419 2176 
Q 1463 2175 1491 2175 
Q 2097 2175 2405 2437 
Q 2713 2700 2713 3106 
Q 2713 3503 2464 3751 
Q 2216 4000 1806 4000 
Q 1625 4000 1316 3941 
L 1316 2178 
z
" transform="scale(0.015625)"/>
       <path id="TimesNewRomanPSMT-4d" d="M 2619 0 
L 981 3566 
L 981 734 
Q 981 344 1066 247 
Q 1181 116 1431 116 
L 1581 116 
L 1581 0 
L 106 0 
L 106 116 
L 256 116 
Q 525 116 638 278 
Q 706 378 706 734 
L 706 3503 
Q 706 3784 644 3909 
Q 600 4000 483 4061 
Q 366 4122 106 4122 
L 106 4238 
L 1306 4238 
L 2844 922 
L 4356 4238 
L 5556 4238 
L 5556 4122 
L 5409 4122 
Q 5138 4122 5025 3959 
Q 4956 3859 4956 3503 
L 4956 734 
Q 4956 344 5044 247 
Q 5159 116 5409 116 
L 5556 116 
L 5556 0 
L 3756 0 
L 3756 116 
L 3906 116 
Q 4178 116 4288 278 
Q 4356 378 4356 734 
L 4356 3566 
L 2722 0 
L 2619 0 
z
" transform="scale(0.015625)"/>
      </defs>
      <use xlink:href="#TimesNewRomanPSMT-44"/>
      <use xlink:href="#TimesNewRomanPSMT-69" x="72.216797"/>
      <use xlink:href="#TimesNewRomanPSMT-73" x="100"/>
      <use xlink:href="#TimesNewRomanPSMT-70" x="138.916016"/>
      <use xlink:href="#TimesNewRomanPSMT-6c" x="188.916016"/>
      <use xlink:href="#TimesNewRomanPSMT-61" x="216.699219"/>
      <use xlink:href="#TimesNewRomanPSMT-63" x="261.083984"/>
      <use xlink:href="#TimesNewRomanPSMT-65" x="305.46875"/>
      <use xlink:href="#TimesNewRomanPSMT-6d" x="349.853516"/>
      <use xlink:href="#TimesNewRomanPSMT-65" x="427.636719"/>
      <use xlink:href="#TimesNewRomanPSMT-6e" x="472.021484"/>
      <use xlink:href="#TimesNewRomanPSMT-74" x="522.021484"/>
      <use xlink:href="#TimesNewRomanPSMT-20" x="549.804688"/>
      <use xlink:href="#TimesNewRomanPSMT-52" x="574.804688"/>
      <use xlink:href="#TimesNewRomanPSMT-4d" x="641.503906"/>
      <use xlink:href="#TimesNewRomanPSMT-53" x="730.419922"/>
      <use xlink:href="#TimesNewRomanPSMT-20" x="786.035156"/>
      <use xlink:href="#TimesNewRomanPSMT-28" x="811.035156"/>
      <use xlink:href="#TimesNewRomanPSMT-6d" x="844.335938"/>
      <use xlink:href="#TimesNewRomanPSMT-29" x="922.119141"/>
     </g>
    </g>
   </g>
   <g id="line2d_69">
    <path d="M 67.2775 652.155501 
L 82.612813 620.715093 
L 97.948125 518.322374 
L 113.283438 470.001345 
L 128.61875 436.015837 
L 143.954063 403.170549 
L 159.289375 384.274034 
L 174.624687 446.959438 
L 189.96 600.200409 
L 205.295313 645.296981 
L 220.630625 647.956702 
L 235.965937 652.161271 
L 251.30125 652.504684 
L 266.636563 651.584994 
L 281.971875 623.273318 
L 297.307187 512.9932 
L 312.6425 476.071656 
L 327.977812 570.340151 
L 343.313125 586.259557 
L 358.648438 583.343209 
L 373.98375 626.277471 
L 389.319063 644.490442 
L 404.654375 647.894922 
L 419.989688 649.963544 
L 435.325 651.229927 
L 450.660312 652.172021 
L 465.995625 652.440527 
L 481.330938 642.666792 
L 496.66625 512.605658 
L 512.001563 466.988706 
L 527.336875 428.602199 
L 542.672188 398.719425 
L 558.0075 394.960331 
L 573.342813 489.136721 
L 588.678125 635.029342 
L 604.013438 645.665739 
L 619.34875 649.284753 
L 634.684063 651.572887 
L 650.019375 653.079716 
L 665.354688 647.791955 
L 680.69 575.380678 
L 696.025313 489.813702 
L 711.360625 445.921733 
L 726.695938 422.090147 
L 742.03125 386.604487 
L 757.366563 435.634066 
L 772.701875 577.591304 
L 788.037188 640.494184 
L 803.3725 645.226714 
L 818.707813 649.332502 
" clip-path="url(#pf07b37b905)" style="fill: none; stroke: #ff0000; stroke-width: 1.5; stroke-linecap: square"/>
    <defs>
     <path id="m64c386076d" d="M 0 3 
C 0.795609 3 1.55874 2.683901 2.12132 2.12132 
C 2.683901 1.55874 3 0.795609 3 0 
C 3 -0.795609 2.683901 -1.55874 2.12132 -2.12132 
C 1.55874 -2.683901 0.795609 -3 0 -3 
C -0.795609 -3 -1.55874 -2.683901 -2.12132 -2.12132 
C -2.683901 -1.55874 -3 -0.795609 -3 0 
C -3 0.795609 -2.683901 1.55874 -2.12132 2.12132 
C -1.55874 2.683901 -0.795609 3 0 3 
z
" style="stroke: #ff0000"/>
    </defs>
    <g clip-path="url(#pf07b37b905)">
     <use xlink:href="#m64c386076d" x="67.2775" y="652.155501" style="fill: #ff0000; stroke: #ff0000"/>
     <use xlink:href="#m64c386076d" x="82.612813" y="620.715093" style="fill: #ff0000; stroke: #ff0000"/>
     <use xlink:href="#m64c386076d" x="97.948125" y="518.322374" style="fill: #ff0000; stroke: #ff0000"/>
     <use xlink:href="#m64c386076d" x="113.283438" y="470.001345" style="fill: #ff0000; stroke: #ff0000"/>
     <use xlink:href="#m64c386076d" x="128.61875" y="436.015837" style="fill: #ff0000; stroke: #ff0000"/>
     <use xlink:href="#m64c386076d" x="143.954063" y="403.170549" style="fill: #ff0000; stroke: #ff0000"/>
     <use xlink:href="#m64c386076d" x="159.289375" y="384.274034" style="fill: #ff0000; stroke: #ff0000"/>
     <use xlink:href="#m64c386076d" x="174.624687" y="446.959438" style="fill: #ff0000; stroke: #ff0000"/>
     <use xlink:href="#m64c386076d" x="189.96" y="600.200409" style="fill: #ff0000; stroke: #ff0000"/>
     <use xlink:href="#m64c386076d" x="205.295313" y="645.296981" style="fill: #ff0000; stroke: #ff0000"/>
     <use xlink:href="#m64c386076d" x="220.630625" y="647.956702" style="fill: #ff0000; stroke: #ff0000"/>
     <use xlink:href="#m64c386076d" x="235.965937" y="652.161271" style="fill: #ff0000; stroke: #ff0000"/>
     <use xlink:href="#m64c386076d" x="251.30125" y="652.504684" style="fill: #ff0000; stroke: #ff0000"/>
     <use xlink:href="#m64c386076d" x="266.636563" y="651.584994" style="fill: #ff0000; stroke: #ff0000"/>
     <use xlink:href="#m64c386076d" x="281.971875" y="623.273318" style="fill: #ff0000; stroke: #ff0000"/>
     <use xlink:href="#m64c386076d" x="297.307187" y="512.9932" style="fill: #ff0000; stroke: #ff0000"/>
     <use xlink:href="#m64c386076d" x="312.6425" y="476.071656" style="fill: #ff0000; stroke: #ff0000"/>
     <use xlink:href="#m64c386076d" x="327.977812" y="570.340151" style="fill: #ff0000; stroke: #ff0000"/>
     <use xlink:href="#m64c386076d" x="343.313125" y="586.259557" style="fill: #ff0000; stroke: #ff0000"/>
     <use xlink:href="#m64c386076d" x="358.648438" y="583.343209" style="fill: #ff0000; stroke: #ff0000"/>
     <use xlink:href="#m64c386076d" x="373.98375" y="626.277471" style="fill: #ff0000; stroke: #ff0000"/>
     <use xlink:href="#m64c386076d" x="389.319063" y="644.490442" style="fill: #ff0000; stroke: #ff0000"/>
     <use xlink:href="#m64c386076d" x="404.654375" y="647.894922" style="fill: #ff0000; stroke: #ff0000"/>
     <use xlink:href="#m64c386076d" x="419.989688" y="649.963544" style="fill: #ff0000; stroke: #ff0000"/>
     <use xlink:href="#m64c386076d" x="435.325" y="651.229927" style="fill: #ff0000; stroke: #ff0000"/>
     <use xlink:href="#m64c386076d" x="450.660312" y="652.172021" style="fill: #ff0000; stroke: #ff0000"/>
     <use xlink:href="#m64c386076d" x="465.995625" y="652.440527" style="fill: #ff0000; stroke: #ff0000"/>
     <use xlink:href="#m64c386076d" x="481.330938" y="642.666792" style="fill: #ff0000; stroke: #ff0000"/>
     <use xlink:href="#m64c386076d" x="496.66625" y="512.605658" style="fill: #ff0000; stroke: #ff0000"/>
     <use xlink:href="#m64c386076d" x="512.001563" y="466.988706" style="fill: #ff0000; stroke: #ff0000"/>
     <use xlink:href="#m64c386076d" x="527.336875" y="428.602199" style="fill: #ff0000; stroke: #ff0000"/>
     <use xlink:href="#m64c386076d" x="542.672188" y="398.719425" style="fill: #ff0000; stroke: #ff0000"/>
     <use xlink:href="#m64c386076d" x="558.0075" y="394.960331" style="fill: #ff0000; stroke: #ff0000"/>
     <use xlink:href="#m64c386076d" x="573.342813" y="489.136721" style="fill: #ff0000; stroke: #ff0000"/>
     <use xlink:href="#m64c386076d" x="588.678125" y="635.029342" style="fill: #ff0000; stroke: #ff0000"/>
     <use xlink:href="#m64c386076d" x="604.013438" y="645.665739" style="fill: #ff0000; stroke: #ff0000"/>
     <use xlink:href="#m64c386076d" x="619.34875" y="649.284753" style="fill: #ff0000; stroke: #ff0000"/>
     <use xlink:href="#m64c386076d" x="634.684063" y="651.572887" style="fill: #ff0000; stroke: #ff0000"/>
     <use xlink:href="#m64c386076d" x="650.019375" y="653.079716" style="fill: #ff0000; stroke: #ff0000"/>
     <use xlink:href="#m64c386076d" x="665.354688" y="647.791955" style="fill: #ff0000; stroke: #ff0000"/>
     <use xlink:href="#m64c386076d" x="680.69" y="575.380678" style="fill: #ff0000; stroke: #ff0000"/>
     <use xlink:href="#m64c386076d" x="696.025313" y="489.813702" style="fill: #ff0000; stroke: #ff0000"/>
     <use xlink:href="#m64c386076d" x="711.360625" y="445.921733" style="fill: #ff0000; stroke: #ff0000"/>
     <use xlink:href="#m64c386076d" x="726.695938" y="422.090147" style="fill: #ff0000; stroke: #ff0000"/>
     <use xlink:href="#m64c386076d" x="742.03125" y="386.604487" style="fill: #ff0000; stroke: #ff0000"/>
     <use xlink:href="#m64c386076d" x="757.366563" y="435.634066" style="fill: #ff0000; stroke: #ff0000"/>
     <use xlink:href="#m64c386076d" x="772.701875" y="577.591304" style="fill: #ff0000; stroke: #ff0000"/>
     <use xlink:href="#m64c386076d" x="788.037188" y="640.494184" style="fill: #ff0000; stroke: #ff0000"/>
     <use xlink:href="#m64c386076d" x="803.3725" y="645.226714" style="fill: #ff0000; stroke: #ff0000"/>
     <use xlink:href="#m64c386076d" x="818.707813" y="649.332502" style="fill: #ff0000; stroke: #ff0000"/>
    </g>
   </g>
   <g id="patch_9">
    <path d="M 51.942188 666.52 
L 51.942188 370.83375 
" style="fill: none; stroke: #000000; stroke-width: 0.8; stroke-linejoin: miter; stroke-linecap: square"/>
   </g>
   <g id="patch_10">
    <path d="M 849.378438 666.52 
L 849.378438 370.83375 
" style="fill: none; stroke: #000000; stroke-width: 0.8; stroke-linejoin: miter; stroke-linecap: square"/>
   </g>
   <g id="patch_11">
    <path d="M 51.942188 666.52 
L 849.378438 666.52 
" style="fill: none; stroke: #000000; stroke-width: 0.8; stroke-linejoin: miter; stroke-linecap: square"/>
   </g>
   <g id="patch_12">
    <path d="M 51.942188 370.83375 
L 849.378438 370.83375 
" style="fill: none; stroke: #000000; stroke-width: 0.8; stroke-linejoin: miter; stroke-linecap: square"/>
   </g>
   <g id="legend_2">
    <g id="patch_13">
     <path d="M 384.296562 397.400625 
L 517.024063 397.400625 
Q 519.424062 397.400625 519.424062 395.000625 
L 519.424062 379.23375 
Q 519.424062 376.83375 517.024063 376.83375 
L 384.296562 376.83375 
Q 381.896562 376.83375 381.896562 379.23375 
L 381.896562 395.000625 
Q 381.896562 397.400625 384.296562 397.400625 
z
" style="fill: #ffffff; opacity: 0.8; stroke: #cccccc; stroke-linejoin: miter"/>
    </g>
    <g id="line2d_70">
     <path d="M 386.696562 385.83375 
L 398.696562 385.83375 
L 410.696562 385.83375 
" style="fill: none; stroke: #ff0000; stroke-width: 1.5; stroke-linecap: square"/>
     <g>
      <use xlink:href="#m64c386076d" x="398.696562" y="385.83375" style="fill: #ff0000; stroke: #ff0000"/>
     </g>
    </g>
    <g id="text_39">
     <!-- Displacement RMS -->
     <g transform="translate(420.296562 390.03375) scale(0.12 -0.12)">
      <use xlink:href="#TimesNewRomanPSMT-44"/>
      <use xlink:href="#TimesNewRomanPSMT-69" x="72.216797"/>
      <use xlink:href="#TimesNewRomanPSMT-73" x="100"/>
      <use xlink:href="#TimesNewRomanPSMT-70" x="138.916016"/>
      <use xlink:href="#TimesNewRomanPSMT-6c" x="188.916016"/>
      <use xlink:href="#TimesNewRomanPSMT-61" x="216.699219"/>
      <use xlink:href="#TimesNewRomanPSMT-63" x="261.083984"/>
      <use xlink:href="#TimesNewRomanPSMT-65" x="305.46875"/>
      <use xlink:href="#TimesNewRomanPSMT-6d" x="349.853516"/>
      <use xlink:href="#TimesNewRomanPSMT-65" x="427.636719"/>
      <use xlink:href="#TimesNewRomanPSMT-6e" x="472.021484"/>
      <use xlink:href="#TimesNewRomanPSMT-74" x="522.021484"/>
      <use xlink:href="#TimesNewRomanPSMT-20" x="549.804688"/>
      <use xlink:href="#TimesNewRomanPSMT-52" x="574.804688"/>
      <use xlink:href="#TimesNewRomanPSMT-4d" x="641.503906"/>
      <use xlink:href="#TimesNewRomanPSMT-53" x="730.419922"/>
     </g>
    </g>
   </g>
  </g>
  <g id="text_40">
   <!-- Train test (50 steps) -->
   <g transform="translate(364.695938 18.31) scale(0.16 -0.16)">
    <defs>
     <path id="TimesNewRomanPSMT-54" d="M 3703 4238 
L 3750 3244 
L 3631 3244 
Q 3597 3506 3538 3619 
Q 3441 3800 3280 3886 
Q 3119 3972 2856 3972 
L 2259 3972 
L 2259 734 
Q 2259 344 2344 247 
Q 2463 116 2709 116 
L 2856 116 
L 2856 0 
L 1059 0 
L 1059 116 
L 1209 116 
Q 1478 116 1591 278 
Q 1659 378 1659 734 
L 1659 3972 
L 1150 3972 
Q 853 3972 728 3928 
Q 566 3869 450 3700 
Q 334 3531 313 3244 
L 194 3244 
L 244 4238 
L 3703 4238 
z
" transform="scale(0.015625)"/>
     <path id="TimesNewRomanPSMT-72" d="M 1038 2947 
L 1038 2303 
Q 1397 2947 1775 2947 
Q 1947 2947 2059 2842 
Q 2172 2738 2172 2600 
Q 2172 2478 2090 2393 
Q 2009 2309 1897 2309 
Q 1788 2309 1652 2417 
Q 1516 2525 1450 2525 
Q 1394 2525 1328 2463 
Q 1188 2334 1038 2041 
L 1038 669 
Q 1038 431 1097 309 
Q 1138 225 1241 169 
Q 1344 113 1538 113 
L 1538 0 
L 72 0 
L 72 113 
Q 291 113 397 181 
Q 475 231 506 341 
Q 522 394 522 644 
L 522 1753 
Q 522 2253 501 2348 
Q 481 2444 426 2487 
Q 372 2531 291 2531 
Q 194 2531 72 2484 
L 41 2597 
L 906 2947 
L 1038 2947 
z
" transform="scale(0.015625)"/>
    </defs>
    <use xlink:href="#TimesNewRomanPSMT-54"/>
    <use xlink:href="#TimesNewRomanPSMT-72" x="57.583984"/>
    <use xlink:href="#TimesNewRomanPSMT-61" x="90.884766"/>
    <use xlink:href="#TimesNewRomanPSMT-69" x="135.269531"/>
    <use xlink:href="#TimesNewRomanPSMT-6e" x="163.052734"/>
    <use xlink:href="#TimesNewRomanPSMT-20" x="213.052734"/>
    <use xlink:href="#TimesNewRomanPSMT-74" x="238.052734"/>
    <use xlink:href="#TimesNewRomanPSMT-65" x="265.835938"/>
    <use xlink:href="#TimesNewRomanPSMT-73" x="310.220703"/>
    <use xlink:href="#TimesNewRomanPSMT-74" x="349.136719"/>
    <use xlink:href="#TimesNewRomanPSMT-20" x="376.919922"/>
    <use xlink:href="#TimesNewRomanPSMT-28" x="401.919922"/>
    <use xlink:href="#TimesNewRomanPSMT-35" x="435.220703"/>
    <use xlink:href="#TimesNewRomanPSMT-30" x="485.220703"/>
    <use xlink:href="#TimesNewRomanPSMT-20" x="535.220703"/>
    <use xlink:href="#TimesNewRomanPSMT-73" x="560.220703"/>
    <use xlink:href="#TimesNewRomanPSMT-74" x="599.136719"/>
    <use xlink:href="#TimesNewRomanPSMT-65" x="626.919922"/>
    <use xlink:href="#TimesNewRomanPSMT-70" x="671.304688"/>
    <use xlink:href="#TimesNewRomanPSMT-73" x="721.304688"/>
    <use xlink:href="#TimesNewRomanPSMT-29" x="760.220703"/>
   </g>
  </g>
 </g>
 <defs>
  <clipPath id="p195e0729af">
   <rect x="51.942188" y="28.8675" width="797.43625" height="295.68625"/>
  </clipPath>
  <clipPath id="pf07b37b905">
   <rect x="51.942188" y="370.83375" width="797.43625" height="295.68625"/>
  </clipPath>
 </defs>
</svg>
